<?xml version="1.0" encoding="UTF-8"?>
<!DOCTYPE svg PUBLIC "-//W3C//DTD SVG 1.1//EN" "http://www.w3.org/Graphics/SVG/1.1/DTD/svg11.dtd">
<svg xmlns="http://www.w3.org/2000/svg" version="1.1" width="4000px" height="4000px" style="shape-rendering:geometricPrecision; text-rendering:geometricPrecision; image-rendering:optimizeQuality; fill-rule:evenodd; clip-rule:evenodd" xmlns:xlink="http://www.w3.org/1999/xlink">
<g><path style="opacity:0.485" fill="#010101" d="M 2179.5,597.5 C 2216.95,660.75 2254.28,723.083 2291.5,784.5C 2513.66,1155.34 2739.16,1532.01 2968,1914.5C 2969.9,1916.53 2972.06,1918.2 2974.5,1919.5C 2979.73,1932.32 2976.23,1941.65 2964,1947.5C 2963.67,1946.83 2963.33,1946.17 2963,1945.5C 2626.41,2144.77 2289.75,2344.11 1953,2543.5C 1950.75,2543.37 1948.58,2542.87 1946.5,2542C 1919.64,2526.41 1892.97,2510.57 1866.5,2494.5C 1852.3,2485.79 1838.3,2477.46 1824.5,2469.5C 1624.45,2350.14 1422.79,2229.8 1219.5,2108.5C 1205.3,2099.79 1191.3,2091.46 1177.5,2083.5C 1099.58,2036.48 1019.74,1989.14 938,1941.5C 934.072,1940.97 931.072,1938.63 929,1934.5C 927.861,1928.67 928.695,1923.17 931.5,1918C 954.079,1882.05 976.079,1846.22 997.5,1810.5C 1280,1346.66 1562.17,883.658 1844,421.5C 1876.95,366.896 1910.28,312.563 1944,258.5C 1945.28,245.895 1952.11,241.062 1964.5,244C 1968.33,246.5 1971.5,249.667 1974,253.5C 2042.43,368.772 2110.93,483.438 2179.5,597.5 Z"/></g>
<g><path style="opacity:0.004" fill="#000000" d="M 1931.5,271.5 C 1932.83,272.167 1932.83,272.167 1931.5,271.5 Z"/></g>
<g><path style="opacity:0.004" fill="#000000" d="M 1996.5,288.5 C 1997.83,289.167 1997.83,289.167 1996.5,288.5 Z"/></g>
<g><path style="opacity:0.004" fill="#000000" d="M 1916.5,296.5 C 1917.83,297.167 1917.83,297.167 1916.5,296.5 Z"/></g>
<g><path style="opacity:0.51" fill="#434240" d="M 1965.5,294.5 C 1965.83,685.667 1965.5,1076.67 1964.5,1467.5C 1963.5,1324 1963.17,1180.33 1963.5,1036.5C 1962.83,788.831 1963.5,541.498 1965.5,294.5 Z"/></g>
<g><path style="opacity:0.51" fill="#42413f" d="M 1965.5,294.5 C 2290.82,836.546 2615.49,1378.55 2939.5,1920.5C 2938.28,1921.61 2936.94,1921.78 2935.5,1921C 2622.91,1775.26 2310.24,1629.93 1997.5,1485C 1986.6,1479.21 1975.6,1473.71 1964.5,1468.5C 1964.5,1468.17 1964.5,1467.83 1964.5,1467.5C 1965.5,1076.67 1965.83,685.667 1965.5,294.5 Z"/></g>
<g><path style="opacity:0.51" fill="#c3c3c2" d="M 1951.5,317.5 C 1915.94,374.856 1881.11,432.522 1847,490.5C 1841.21,498.308 1836.21,506.641 1832,515.5C 1830.33,516.5 1829,517.833 1828,519.5C 1806.99,555.297 1785.49,590.631 1763.5,625.5C 1752.65,645.499 1740.82,664.832 1728,683.5C 1703.14,726.208 1677.47,768.541 1651,810.5C 1625.67,853.32 1600.01,895.654 1574,937.5C 1561.88,959.942 1548.55,981.609 1534,1002.5C 1514.32,1034.87 1494.99,1067.54 1476,1100.5C 1470.36,1107.11 1466.03,1114.45 1463,1122.5C 1462,1123.17 1461,1123.83 1460,1124.5C 1444.76,1150.44 1429.42,1176.44 1414,1202.5C 1391.35,1237.76 1369.68,1273.43 1349,1309.5C 1344.61,1314.89 1340.61,1320.55 1337,1326.5C 1310.42,1372 1283.09,1417 1255,1461.5C 1254.8,1464.9 1253.3,1467.57 1250.5,1469.5C 1232.55,1500.26 1214.05,1530.59 1195,1560.5C 1176.09,1593.31 1156.43,1625.65 1136,1657.5C 1119.02,1687.16 1101.35,1716.16 1083,1744.5C 1075.94,1757.14 1068.77,1769.8 1061.5,1782.5C 1059.17,1783.77 1058,1785.77 1058,1788.5C 1052.41,1796.03 1047.08,1803.69 1042,1811.5C 1039.04,1816.7 1036.37,1822.04 1034,1827.5C 1030.9,1830.09 1028.9,1833.42 1028,1837.5C 1015.16,1856.18 1003.33,1875.51 992.5,1895.5C 991.167,1896.17 989.833,1896.83 988.5,1897.5C 985.937,1898.09 983.604,1899.09 981.5,1900.5C 979.786,1901.74 977.786,1902.41 975.5,1902.5C 977.52,1895.46 980.853,1889.13 985.5,1883.5C 988.557,1881.75 990.224,1879.08 990.5,1875.5C 994.333,1867.83 998.666,1860.5 1003.5,1853.5C 1004.91,1853.03 1005.57,1852.03 1005.5,1850.5C 1005.33,1849.51 1005.66,1848.84 1006.5,1848.5C 1007.91,1848.03 1008.57,1847.03 1008.5,1845.5C 1009.11,1843.57 1010.11,1841.9 1011.5,1840.5C 1012.91,1840.03 1013.57,1839.03 1013.5,1837.5C 1026.42,1815.25 1039.75,1793.25 1053.5,1771.5C 1054.91,1771.03 1055.57,1770.03 1055.5,1768.5C 1056.11,1766.57 1057.11,1764.9 1058.5,1763.5C 1059.91,1763.03 1060.57,1762.03 1060.5,1760.5C 1061.77,1757.24 1063.44,1754.24 1065.5,1751.5C 1066.91,1751.03 1067.57,1750.03 1067.5,1748.5C 1069,1744.83 1071,1741.49 1073.5,1738.5C 1074.91,1738.03 1075.57,1737.03 1075.5,1735.5C 1076.9,1732.37 1078.57,1729.37 1080.5,1726.5C 1082.76,1725.66 1083.76,1723.99 1083.5,1721.5C 1087.5,1715.17 1091.5,1708.83 1095.5,1702.5C 1096.91,1702.03 1097.57,1701.03 1097.5,1699.5C 1098.11,1697.57 1099.11,1695.9 1100.5,1694.5C 1101.91,1694.03 1102.57,1693.03 1102.5,1691.5C 1102.33,1690.51 1102.66,1689.84 1103.5,1689.5C 1104.91,1689.03 1105.57,1688.03 1105.5,1686.5C 1108.11,1681.23 1111.11,1676.23 1114.5,1671.5C 1115.91,1671.03 1116.57,1670.03 1116.5,1668.5C 1117.08,1665.67 1118.41,1663.34 1120.5,1661.5C 1121.91,1661.03 1122.57,1660.03 1122.5,1658.5C 1122.33,1657.51 1122.66,1656.84 1123.5,1656.5C 1124.91,1656.03 1125.57,1655.03 1125.5,1653.5C 1126.91,1653.03 1127.57,1652.03 1127.5,1650.5C 1131.43,1642.91 1135.76,1635.58 1140.5,1628.5C 1142.82,1627.2 1144.16,1625.2 1144.5,1622.5C 1152.92,1607.99 1161.59,1593.66 1170.5,1579.5C 1171.91,1579.03 1172.57,1578.03 1172.5,1576.5C 1172.75,1574.33 1173.75,1572.66 1175.5,1571.5C 1176.91,1571.03 1177.57,1570.03 1177.5,1568.5C 1177.33,1567.51 1177.66,1566.84 1178.5,1566.5C 1180.41,1565.51 1181.41,1563.85 1181.5,1561.5C 1183.41,1560.51 1184.41,1558.85 1184.5,1556.5C 1184.33,1555.51 1184.66,1554.84 1185.5,1554.5C 1186.91,1554.03 1187.57,1553.03 1187.5,1551.5C 1188.11,1549.57 1189.11,1547.9 1190.5,1546.5C 1191.91,1546.03 1192.57,1545.03 1192.5,1543.5C 1198.92,1532.33 1205.59,1521.33 1212.5,1510.5C 1213.91,1510.03 1214.57,1509.03 1214.5,1507.5C 1215.11,1505.57 1216.11,1503.9 1217.5,1502.5C 1218.91,1502.03 1219.57,1501.03 1219.5,1499.5C 1219.33,1498.51 1219.66,1497.84 1220.5,1497.5C 1221.91,1497.03 1222.57,1496.03 1222.5,1494.5C 1223.11,1492.57 1224.11,1490.9 1225.5,1489.5C 1227.41,1488.51 1228.41,1486.85 1228.5,1484.5C 1231.07,1482.97 1232.4,1480.64 1232.5,1477.5C 1234.76,1476.66 1235.76,1474.99 1235.5,1472.5C 1236.91,1472.03 1237.57,1471.03 1237.5,1469.5C 1238.91,1469.03 1239.57,1468.03 1239.5,1466.5C 1240.11,1464.57 1241.11,1462.9 1242.5,1461.5C 1243.91,1461.03 1244.57,1460.03 1244.5,1458.5C 1255.65,1438.87 1267.32,1419.54 1279.5,1400.5C 1280.91,1400.03 1281.57,1399.03 1281.5,1397.5C 1283,1393.83 1285,1390.49 1287.5,1387.5C 1288.91,1387.03 1289.57,1386.03 1289.5,1384.5C 1290.74,1381.26 1292.4,1378.26 1294.5,1375.5C 1295.91,1375.03 1296.57,1374.03 1296.5,1372.5C 1298.26,1371.74 1299.26,1370.4 1299.5,1368.5C 1310.65,1348.87 1322.32,1329.53 1334.5,1310.5C 1335.91,1310.03 1336.57,1309.03 1336.5,1307.5C 1336.33,1306.51 1336.66,1305.84 1337.5,1305.5C 1338.91,1305.03 1339.57,1304.03 1339.5,1302.5C 1339.75,1300.33 1340.75,1298.66 1342.5,1297.5C 1344.41,1296.51 1345.41,1294.85 1345.5,1292.5C 1348.07,1290.97 1349.4,1288.64 1349.5,1285.5C 1350.91,1285.03 1351.57,1284.03 1351.5,1282.5C 1352.11,1280.57 1353.11,1278.9 1354.5,1277.5C 1355.91,1277.03 1356.57,1276.03 1356.5,1274.5C 1363.77,1261.57 1371.43,1248.9 1379.5,1236.5C 1380.91,1236.03 1381.57,1235.03 1381.5,1233.5C 1386.11,1224.9 1391.11,1216.57 1396.5,1208.5C 1398.76,1207.66 1399.76,1205.99 1399.5,1203.5C 1400.91,1203.03 1401.57,1202.03 1401.5,1200.5C 1401.75,1198.33 1402.75,1196.66 1404.5,1195.5C 1405.91,1195.03 1406.57,1194.03 1406.5,1192.5C 1406.33,1191.51 1406.66,1190.84 1407.5,1190.5C 1408.91,1190.03 1409.57,1189.03 1409.5,1187.5C 1409.73,1185.94 1410.4,1184.6 1411.5,1183.5C 1414.08,1182.95 1415.08,1181.29 1414.5,1178.5C 1425.9,1159.36 1437.57,1140.36 1449.5,1121.5C 1450.91,1121.03 1451.57,1120.03 1451.5,1118.5C 1452.91,1118.03 1453.57,1117.03 1453.5,1115.5C 1453.33,1114.51 1453.66,1113.84 1454.5,1113.5C 1455.91,1113.03 1456.57,1112.03 1456.5,1110.5C 1456.33,1109.51 1456.66,1108.84 1457.5,1108.5C 1459.41,1107.51 1460.41,1105.85 1460.5,1103.5C 1464.17,1097.48 1467.84,1091.48 1471.5,1085.5C 1472.91,1085.03 1473.57,1084.03 1473.5,1082.5C 1481.17,1069.83 1488.84,1057.16 1496.5,1044.5C 1497.91,1044.03 1498.57,1043.03 1498.5,1041.5C 1500,1037.83 1502,1034.49 1504.5,1031.5C 1505.91,1031.03 1506.57,1030.03 1506.5,1028.5C 1507.11,1026.57 1508.11,1024.9 1509.5,1023.5C 1511.41,1022.51 1512.41,1020.85 1512.5,1018.5C 1513.08,1015.67 1514.41,1013.34 1516.5,1011.5C 1517.91,1011.03 1518.57,1010.03 1518.5,1008.5C 1519.11,1006.57 1520.11,1004.9 1521.5,1003.5C 1522.91,1003.03 1523.57,1002.03 1523.5,1000.5C 1529.92,989.326 1536.59,978.326 1543.5,967.5C 1544.91,967.027 1545.57,966.027 1545.5,964.5C 1552.67,951.493 1560.33,938.826 1568.5,926.5C 1569.91,926.027 1570.57,925.027 1570.5,923.5C 1570.33,922.508 1570.66,921.842 1571.5,921.5C 1572.91,921.027 1573.57,920.027 1573.5,918.5C 1586.32,896.187 1599.66,874.187 1613.5,852.5C 1614.91,852.027 1615.57,851.027 1615.5,849.5C 1615.33,848.508 1615.66,847.842 1616.5,847.5C 1617.91,847.027 1618.57,846.027 1618.5,844.5C 1619.91,844.027 1620.57,843.027 1620.5,841.5C 1620.33,840.508 1620.66,839.842 1621.5,839.5C 1622.91,839.027 1623.57,838.027 1623.5,836.5C 1623.73,834.938 1624.4,833.605 1625.5,832.5C 1626.91,832.027 1627.57,831.027 1627.5,829.5C 1629.32,826.042 1631.32,822.709 1633.5,819.5C 1634.91,819.027 1635.57,818.027 1635.5,816.5C 1643.59,802.659 1651.92,788.992 1660.5,775.5C 1661.91,775.027 1662.57,774.027 1662.5,772.5C 1662.33,771.508 1662.66,770.842 1663.5,770.5C 1664.91,770.027 1665.57,769.027 1665.5,767.5C 1668.58,761.661 1671.92,755.994 1675.5,750.5C 1676.91,750.027 1677.57,749.027 1677.5,747.5C 1679,743.827 1681,740.494 1683.5,737.5C 1684.91,737.027 1685.57,736.027 1685.5,734.5C 1686.91,734.027 1687.57,733.027 1687.5,731.5C 1695.17,718.825 1702.84,706.159 1710.5,693.5C 1711.91,693.027 1712.57,692.027 1712.5,690.5C 1718.11,680.233 1724.11,670.233 1730.5,660.5C 1731.91,660.027 1732.57,659.027 1732.5,657.5C 1734,653.827 1736,650.494 1738.5,647.5C 1739.91,647.027 1740.57,646.027 1740.5,644.5C 1744.49,637.861 1748.49,631.194 1752.5,624.5C 1753.91,624.027 1754.57,623.027 1754.5,621.5C 1761.67,608.493 1769.33,595.826 1777.5,583.5C 1778.91,583.027 1779.57,582.027 1779.5,580.5C 1779.33,579.508 1779.66,578.842 1780.5,578.5C 1781.91,578.027 1782.57,577.027 1782.5,575.5C 1784,571.827 1786,568.494 1788.5,565.5C 1791.07,563.973 1792.4,561.639 1792.5,558.5C 1793.91,558.027 1794.57,557.027 1794.5,555.5C 1796,551.818 1798,548.484 1800.5,545.5C 1801.91,545.027 1802.57,544.027 1802.5,542.5C 1803.91,542.027 1804.57,541.027 1804.5,539.5C 1810.11,529.233 1816.11,519.233 1822.5,509.5C 1823.91,509.027 1824.57,508.027 1824.5,506.5C 1825.11,504.566 1826.11,502.899 1827.5,501.5C 1828.91,501.027 1829.57,500.027 1829.5,498.5C 1829.33,497.508 1829.66,496.842 1830.5,496.5C 1831.91,496.027 1832.57,495.027 1832.5,493.5C 1833.67,490.489 1835.34,487.822 1837.5,485.5C 1838.38,485.631 1839.04,485.298 1839.5,484.5C 1841.06,482.009 1842.06,479.343 1842.5,476.5C 1843.91,476.027 1844.57,475.027 1844.5,473.5C 1845.11,471.566 1846.11,469.899 1847.5,468.5C 1848.91,468.027 1849.57,467.027 1849.5,465.5C 1849.75,463.326 1850.75,461.659 1852.5,460.5C 1853.91,460.027 1854.57,459.027 1854.5,457.5C 1859.26,448.97 1864.26,440.636 1869.5,432.5C 1870.91,432.027 1871.57,431.027 1871.5,429.5C 1877.11,419.233 1883.11,409.233 1889.5,399.5C 1891.76,398.656 1892.76,396.989 1892.5,394.5C 1893.91,394.027 1894.57,393.027 1894.5,391.5C 1895.11,389.566 1896.11,387.899 1897.5,386.5C 1898.91,386.027 1899.57,385.027 1899.5,383.5C 1900.11,381.566 1901.11,379.899 1902.5,378.5C 1903.91,378.027 1904.57,377.027 1904.5,375.5C 1915.65,355.864 1927.32,336.53 1939.5,317.5C 1940.91,317.027 1941.57,316.027 1941.5,314.5C 1944.56,312.746 1946.22,310.079 1946.5,306.5C 1946.63,303.203 1948.3,301.537 1951.5,301.5C 1951.5,306.833 1951.5,312.167 1951.5,317.5 Z"/></g>
<g><path style="opacity:0.51" fill="#959594" d="M 1946.5,306.5 C 1946.22,310.079 1944.56,312.746 1941.5,314.5C 1942.67,311.489 1944.34,308.822 1946.5,306.5 Z"/></g>
<g><path style="opacity:0.004" fill="#000000" d="M 1906.5,313.5 C 1907.83,314.167 1907.83,314.167 1906.5,313.5 Z"/></g>
<g><path style="opacity:0.004" fill="#000000" d="M 2011.5,313.5 C 2012.83,314.167 2012.83,314.167 2011.5,313.5 Z"/></g>
<g><path style="opacity:0.51" fill="#646463" d="M 1941.5,314.5 C 1941.57,316.027 1940.91,317.027 1939.5,317.5C 1939.43,315.973 1940.09,314.973 1941.5,314.5 Z"/></g>
<g><path style="opacity:0.004" fill="#000000" d="M 2016.5,321.5 C 2017.83,322.167 2017.83,322.167 2016.5,321.5 Z"/></g>
<g><path style="opacity:0.51" fill="#949492" d="M 1951.5,317.5 C 1951.67,701.833 1951.5,1086.17 1951,1470.5C 1891.81,1497.02 1832.64,1523.35 1773.5,1549.5C 1771.62,1549.23 1770.29,1549.9 1769.5,1551.5C 1750.42,1559.64 1731.42,1567.97 1712.5,1576.5C 1709.94,1577.09 1707.6,1578.09 1705.5,1579.5C 1668.25,1596.12 1630.92,1612.78 1593.5,1629.5C 1590.95,1630.61 1588.28,1631.44 1585.5,1632C 1584.62,1632.71 1583.95,1633.54 1583.5,1634.5C 1576.82,1637 1570.15,1639.5 1563.5,1642C 1530.71,1657.4 1497.71,1672.23 1464.5,1686.5C 1460.52,1687.6 1456.85,1689.27 1453.5,1691.5C 1450.29,1692.46 1447.29,1693.79 1444.5,1695.5C 1442.03,1695.75 1440.03,1696.75 1438.5,1698.5C 1410.81,1709.94 1383.48,1721.94 1356.5,1734.5C 1354.03,1734.75 1352.03,1735.75 1350.5,1737.5C 1302.48,1757.67 1254.82,1778.67 1207.5,1800.5C 1204.94,1801.09 1202.6,1802.09 1200.5,1803.5C 1197.5,1804.27 1194.84,1805.6 1192.5,1807.5C 1163.18,1819.41 1134.18,1832.08 1105.5,1845.5C 1102.94,1846.09 1100.6,1847.09 1098.5,1848.5C 1074.56,1859.13 1050.56,1869.8 1026.5,1880.5C 1023.94,1881.09 1021.6,1882.09 1019.5,1883.5C 1010.45,1887.51 1001.45,1891.51 992.5,1895.5C 1003.33,1875.51 1015.16,1856.18 1028,1837.5C 1028.9,1833.42 1030.9,1830.09 1034,1827.5C 1036.37,1822.04 1039.04,1816.7 1042,1811.5C 1047.08,1803.69 1052.41,1796.03 1058,1788.5C 1058,1785.77 1059.17,1783.77 1061.5,1782.5C 1068.77,1769.8 1075.94,1757.14 1083,1744.5C 1101.35,1716.16 1119.02,1687.16 1136,1657.5C 1156.43,1625.65 1176.09,1593.31 1195,1560.5C 1214.05,1530.59 1232.55,1500.26 1250.5,1469.5C 1253.3,1467.57 1254.8,1464.9 1255,1461.5C 1283.09,1417 1310.42,1372 1337,1326.5C 1340.61,1320.55 1344.61,1314.89 1349,1309.5C 1369.68,1273.43 1391.35,1237.76 1414,1202.5C 1429.42,1176.44 1444.76,1150.44 1460,1124.5C 1461,1123.83 1462,1123.17 1463,1122.5C 1466.03,1114.45 1470.36,1107.11 1476,1100.5C 1494.99,1067.54 1514.32,1034.87 1534,1002.5C 1548.55,981.609 1561.88,959.942 1574,937.5C 1600.01,895.654 1625.67,853.32 1651,810.5C 1677.47,768.541 1703.14,726.208 1728,683.5C 1740.82,664.832 1752.65,645.499 1763.5,625.5C 1785.49,590.631 1806.99,555.297 1828,519.5C 1829,517.833 1830.33,516.5 1832,515.5C 1836.21,506.641 1841.21,498.308 1847,490.5C 1881.11,432.522 1915.94,374.856 1951.5,317.5 Z"/></g>
<g><path style="opacity:0.004" fill="#000000" d="M 2026.5,338.5 C 2027.83,339.167 2027.83,339.167 2026.5,338.5 Z"/></g>
<g><path style="opacity:0.004" fill="#000000" d="M 1888.5,343.5 C 1889.83,344.167 1889.83,344.167 1888.5,343.5 Z"/></g>
<g><path style="opacity:0.004" fill="#000000" d="M 2036.5,355.5 C 2037.83,356.167 2037.83,356.167 2036.5,355.5 Z"/></g>
<g><path style="opacity:0.004" fill="#000000" d="M 2041.5,363.5 C 2042.83,364.167 2042.83,364.167 2041.5,363.5 Z"/></g>
<g><path style="opacity:0.443" fill="#787878" d="M 1904.5,375.5 C 1904.57,377.027 1903.91,378.027 1902.5,378.5C 1902.43,376.973 1903.09,375.973 1904.5,375.5 Z"/></g>
<g><path style="opacity:0.004" fill="#000000" d="M 2051.5,380.5 C 2052.83,381.167 2052.83,381.167 2051.5,380.5 Z"/></g>
<g><path style="opacity:0.427" fill="#6a6a6a" d="M 1899.5,383.5 C 1899.57,385.027 1898.91,386.027 1897.5,386.5C 1897.43,384.973 1898.09,383.973 1899.5,383.5 Z"/></g>
<g><path style="opacity:0.004" fill="#000000" d="M 2056.5,388.5 C 2057.83,389.167 2057.83,389.167 2056.5,388.5 Z"/></g>
<g><path style="opacity:0.439" fill="#656564" d="M 1894.5,391.5 C 1894.57,393.027 1893.91,394.027 1892.5,394.5C 1892.43,392.973 1893.09,391.973 1894.5,391.5 Z"/></g>
<g><path style="opacity:0.004" fill="#000000" d="M 1856.5,395.5 C 1857.83,396.167 1857.83,396.167 1856.5,395.5 Z"/></g>
<g><path style="opacity:0.506" fill="#8c8c8b" d="M 1892.5,394.5 C 1892.76,396.989 1891.76,398.656 1889.5,399.5C 1890.11,397.566 1891.11,395.899 1892.5,394.5 Z"/></g>
<g><path style="opacity:0.004" fill="#000000" d="M 1851.5,403.5 C 1852.83,404.167 1852.83,404.167 1851.5,403.5 Z"/></g>
<g><path style="opacity:0.004" fill="#000000" d="M 2066.5,405.5 C 2067.83,406.167 2067.83,406.167 2066.5,405.5 Z"/></g>
<g><path style="opacity:0.004" fill="#000000" d="M 2071.5,413.5 C 2072.83,414.167 2072.83,414.167 2071.5,413.5 Z"/></g>
<g><path style="opacity:0.004" fill="#000000" d="M 1841.5,420.5 C 1842.83,421.167 1842.83,421.167 1841.5,420.5 Z"/></g>
<g><path style="opacity:0.004" fill="#000000" d="M 2081.5,430.5 C 2082.83,431.167 2082.83,431.167 2081.5,430.5 Z"/></g>
<g><path style="opacity:0.459" fill="#797978" d="M 1871.5,429.5 C 1871.57,431.027 1870.91,432.027 1869.5,432.5C 1869.43,430.973 1870.09,429.973 1871.5,429.5 Z"/></g>
<g><path style="opacity:0.004" fill="#000000" d="M 2086.5,438.5 C 2087.83,439.167 2087.83,439.167 2086.5,438.5 Z"/></g>
<g><path style="opacity:0.004" fill="#000000" d="M 2096.5,455.5 C 2097.83,456.167 2097.83,456.167 2096.5,455.5 Z"/></g>
<g><path style="opacity:0.443" fill="#767675" d="M 1854.5,457.5 C 1854.57,459.027 1853.91,460.027 1852.5,460.5C 1852.43,458.973 1853.09,457.973 1854.5,457.5 Z"/></g>
<g><path style="opacity:0.427" fill="#686868" d="M 1849.5,465.5 C 1849.57,467.027 1848.91,468.027 1847.5,468.5C 1847.43,466.973 1848.09,465.973 1849.5,465.5 Z"/></g>
<g><path style="opacity:0.42" fill="#5f5f5e" d="M 1844.5,473.5 C 1844.57,475.027 1843.91,476.027 1842.5,476.5C 1842.43,474.973 1843.09,473.973 1844.5,473.5 Z"/></g>
<g><path style="opacity:0.004" fill="#000000" d="M 1804.5,480.5 C 1805.83,481.167 1805.83,481.167 1804.5,480.5 Z"/></g>
<g><path style="opacity:0.004" fill="#000000" d="M 2111.5,480.5 C 2112.83,481.167 2112.83,481.167 2111.5,480.5 Z"/></g>
<g><path style="opacity:0.502" fill="#9b9b9a" d="M 1842.5,476.5 C 1842.06,479.343 1841.06,482.009 1839.5,484.5C 1839.04,485.298 1838.38,485.631 1837.5,485.5C 1838.41,482.008 1840.08,479.008 1842.5,476.5 Z"/></g>
<g><path style="opacity:0.451" fill="#727271" d="M 1832.5,493.5 C 1832.57,495.027 1831.91,496.027 1830.5,496.5C 1830.43,494.973 1831.09,493.973 1832.5,493.5 Z"/></g>
<g><path style="opacity:0.447" fill="#797978" d="M 1829.5,498.5 C 1829.57,500.027 1828.91,501.027 1827.5,501.5C 1827.43,499.973 1828.09,498.973 1829.5,498.5 Z"/></g>
<g><path style="opacity:0.447" fill="#6f6f6f" d="M 1824.5,506.5 C 1824.57,508.027 1823.91,509.027 1822.5,509.5C 1822.43,507.973 1823.09,506.973 1824.5,506.5 Z"/></g>
<g><path style="opacity:0.004" fill="#000000" d="M 1786.5,510.5 C 1787.83,511.167 1787.83,511.167 1786.5,510.5 Z"/></g>
<g><path style="opacity:0.51" fill="#1d1d1c" d="M 1965.5,294.5 C 1963.5,541.498 1962.83,788.831 1963.5,1036.5C 1963.17,1036.5 1962.83,1036.5 1962.5,1036.5C 1962.33,788.833 1962.5,541.166 1963,293.5C 1964.46,292.117 1965.29,292.451 1965.5,294.5 Z"/></g>
<g><path style="opacity:0.004" fill="#000000" d="M 2138.5,525.5 C 2139.83,526.167 2139.83,526.167 2138.5,525.5 Z"/></g>
<g><path style="opacity:0.004" fill="#000000" d="M 1776.5,527.5 C 1777.83,528.167 1777.83,528.167 1776.5,527.5 Z"/></g>
<g><path style="opacity:0.451" fill="#797978" d="M 1804.5,539.5 C 1804.57,541.027 1803.91,542.027 1802.5,542.5C 1802.43,540.973 1803.09,539.973 1804.5,539.5 Z"/></g>
<g><path style="opacity:0.431" fill="#606060" d="M 1802.5,542.5 C 1802.57,544.027 1801.91,545.027 1800.5,545.5C 1800.43,543.973 1801.09,542.973 1802.5,542.5 Z"/></g>
<g><path style="opacity:0.427" fill="#5c5c5b" d="M 1794.5,555.5 C 1794.57,557.027 1793.91,558.027 1792.5,558.5C 1792.43,556.973 1793.09,555.973 1794.5,555.5 Z"/></g>
<g><path style="opacity:0.494" fill="#8b8b8a" d="M 1792.5,558.5 C 1792.4,561.639 1791.07,563.973 1788.5,565.5C 1789.08,562.669 1790.41,560.336 1792.5,558.5 Z"/></g>
<g><path style="opacity:0.004" fill="#000000" d="M 2163.5,567.5 C 2164.83,568.167 2164.83,568.167 2163.5,567.5 Z"/></g>
<g><path style="opacity:0.443" fill="#717170" d="M 1782.5,575.5 C 1782.57,577.027 1781.91,578.027 1780.5,578.5C 1780.43,576.973 1781.09,575.973 1782.5,575.5 Z"/></g>
<g><path style="opacity:0.51" fill="#c7c7c6" d="M 1914.5,687.5 C 1911.93,734.638 1910.6,781.971 1910.5,829.5C 1910.5,835.167 1910.5,840.833 1910.5,846.5C 1908.02,875.94 1906.68,905.606 1906.5,935.5C 1905.23,959.559 1903.23,983.559 1900.5,1007.5C 1899.5,1007.5 1898.5,1007.5 1897.5,1007.5C 1896.55,998.077 1895.05,988.743 1893,979.5C 1891.32,966.549 1890.16,953.549 1889.5,940.5C 1889.82,914.958 1888.82,889.625 1886.5,864.5C 1886.5,864.167 1886.5,863.833 1886.5,863.5C 1886.53,820.164 1886.87,776.83 1887.5,733.5C 1888.02,722.674 1888.68,712.007 1889.5,701.5C 1891.46,665.669 1893.13,629.669 1894.5,593.5C 1894.33,589.486 1894.5,585.486 1895,581.5C 1898.27,576.928 1902.1,576.428 1906.5,580C 1908.35,582.543 1909.52,585.376 1910,588.5C 1911.5,597.496 1912.83,606.496 1914,615.5C 1914.5,639.498 1914.67,663.498 1914.5,687.5 Z"/></g>
<g><path style="opacity:0.431" fill="#727272" d="M 1779.5,580.5 C 1779.57,582.027 1778.91,583.027 1777.5,583.5C 1777.43,581.973 1778.09,580.973 1779.5,580.5 Z"/></g>
<g><path style="opacity:0.004" fill="#000000" d="M 1739.5,587.5 C 1740.83,588.167 1740.83,588.167 1739.5,587.5 Z"/></g>
<g><path style="opacity:0.004" fill="#000000" d="M 2178.5,592.5 C 2179.83,593.167 2179.83,593.167 2178.5,592.5 Z"/></g>
<g><path style="opacity:0.004" fill="#000000" d="M 1734.5,595.5 C 1735.83,596.167 1735.83,596.167 1734.5,595.5 Z"/></g>
<g><path style="opacity:0.004" fill="#000000" d="M 2179.5,596.5 C 2180.83,597.167 2180.83,597.167 2179.5,596.5 Z"/></g>
<g><path style="opacity:0.004" fill="#000000" d="M 2193.5,617.5 C 2194.83,618.167 2194.83,618.167 2193.5,617.5 Z"/></g>
<g><path style="opacity:0.455" fill="#797979" d="M 1754.5,621.5 C 1754.57,623.027 1753.91,624.027 1752.5,624.5C 1752.43,622.973 1753.09,621.973 1754.5,621.5 Z"/></g>
<g><path style="opacity:0.004" fill="#000000" d="M 2203.5,634.5 C 2204.83,635.167 2204.83,635.167 2203.5,634.5 Z"/></g>
<g><path style="opacity:0.004" fill="#000000" d="M 2208.5,642.5 C 2209.83,643.167 2209.83,643.167 2208.5,642.5 Z"/></g>
<g><path style="opacity:0.51" fill="#adadac" d="M 1894.5,593.5 C 1893.13,629.669 1891.46,665.669 1889.5,701.5C 1889.97,665.286 1891.64,629.286 1894.5,593.5 Z"/></g>
<g><path style="opacity:0.447" fill="#717170" d="M 1740.5,644.5 C 1740.57,646.027 1739.91,647.027 1738.5,647.5C 1738.43,645.973 1739.09,644.973 1740.5,644.5 Z"/></g>
<g><path style="opacity:0.424" fill="#686867" d="M 1732.5,657.5 C 1732.57,659.027 1731.91,660.027 1730.5,660.5C 1730.43,658.973 1731.09,657.973 1732.5,657.5 Z"/></g>
<g><path style="opacity:0.004" fill="#000000" d="M 2218.5,659.5 C 2219.83,660.167 2219.83,660.167 2218.5,659.5 Z"/></g>
<g><path style="opacity:0.004" fill="#000000" d="M 1692.5,664.5 C 1693.83,665.167 1693.83,665.167 1692.5,664.5 Z"/></g>
<g><path style="opacity:0.004" fill="#000000" d="M 2223.5,667.5 C 2224.83,668.167 2224.83,668.167 2223.5,667.5 Z"/></g>
<g><path style="opacity:0.004" fill="#000000" d="M 1687.5,672.5 C 1688.83,673.167 1688.83,673.167 1687.5,672.5 Z"/></g>
<g><path style="opacity:0.004" fill="#000000" d="M 2233.5,684.5 C 2234.83,685.167 2234.83,685.167 2233.5,684.5 Z"/></g>
<g><path style="opacity:0.451" fill="#797978" d="M 1712.5,690.5 C 1712.57,692.027 1711.91,693.027 1710.5,693.5C 1710.43,691.973 1711.09,690.973 1712.5,690.5 Z"/></g>
<g><path style="opacity:0.004" fill="#000000" d="M 2238.5,692.5 C 2239.83,693.167 2239.83,693.167 2238.5,692.5 Z"/></g>
<g><path style="opacity:0.004" fill="#000000" d="M 1674.5,694.5 C 1675.83,695.167 1675.83,695.167 1674.5,694.5 Z"/></g>
<g><path style="opacity:0.004" fill="#000000" d="M 1669.5,702.5 C 1670.83,703.167 1670.83,703.167 1669.5,702.5 Z"/></g>
<g><path style="opacity:0.004" fill="#000000" d="M 2248.5,709.5 C 2249.83,710.167 2249.83,710.167 2248.5,709.5 Z"/></g>
<g><path style="opacity:0.447" fill="#767676" d="M 1687.5,731.5 C 1687.57,733.027 1686.91,734.027 1685.5,734.5C 1685.43,732.973 1686.09,731.973 1687.5,731.5 Z"/></g>
<g><path style="opacity:0.004" fill="#000000" d="M 2263.5,734.5 C 2264.83,735.167 2264.83,735.167 2263.5,734.5 Z"/></g>
<g><path style="opacity:0.424" fill="#60605f" d="M 1685.5,734.5 C 1685.57,736.027 1684.91,737.027 1683.5,737.5C 1683.43,735.973 1684.09,734.973 1685.5,734.5 Z"/></g>
<g><path style="opacity:0.51" fill="#a6a6a5" d="M 1914.5,687.5 C 1913.64,735.007 1912.3,782.341 1910.5,829.5C 1910.6,781.971 1911.93,734.638 1914.5,687.5 Z"/></g>
<g><path style="opacity:0.424" fill="#5b5b5b" d="M 1677.5,747.5 C 1677.57,749.027 1676.91,750.027 1675.5,750.5C 1675.43,748.973 1676.09,747.973 1677.5,747.5 Z"/></g>
<g><path style="opacity:0.004" fill="#000000" d="M 1637.5,754.5 C 1638.83,755.167 1638.83,755.167 1637.5,754.5 Z"/></g>
<g><path style="opacity:0.447" fill="#707070" d="M 1665.5,767.5 C 1665.57,769.027 1664.91,770.027 1663.5,770.5C 1663.43,768.973 1664.09,767.973 1665.5,767.5 Z"/></g>
<g><path style="opacity:0.004" fill="#000000" d="M 1627.5,771.5 C 1628.83,772.167 1628.83,772.167 1627.5,771.5 Z"/></g>
<g><path style="opacity:0.431" fill="#747473" d="M 1662.5,772.5 C 1662.57,774.027 1661.91,775.027 1660.5,775.5C 1660.43,773.973 1661.09,772.973 1662.5,772.5 Z"/></g>
<g><path style="opacity:0.004" fill="#000000" d="M 1622.5,779.5 C 1623.83,780.167 1623.83,780.167 1622.5,779.5 Z"/></g>
<g><path style="opacity:0.004" fill="#000000" d="M 2291.5,783.5 C 2292.83,784.167 2292.83,784.167 2291.5,783.5 Z"/></g>
<g><path style="opacity:0.51" fill="#aaaaa8" d="M 1887.5,733.5 C 1886.87,776.83 1886.53,820.164 1886.5,863.5C 1885.12,820.157 1885.45,776.823 1887.5,733.5 Z"/></g>
<g><path style="opacity:0.427" fill="#5d5d5d" d="M 1635.5,816.5 C 1635.57,818.027 1634.91,819.027 1633.5,819.5C 1633.43,817.973 1634.09,816.973 1635.5,816.5 Z"/></g>
<g><path style="opacity:0.435" fill="#5c5c5b" d="M 1627.5,829.5 C 1627.57,831.027 1626.91,832.027 1625.5,832.5C 1625.43,830.973 1626.09,829.973 1627.5,829.5 Z"/></g>
<g><path style="opacity:0.451" fill="#717170" d="M 1623.5,836.5 C 1623.57,838.027 1622.91,839.027 1621.5,839.5C 1621.43,837.973 1622.09,836.973 1623.5,836.5 Z"/></g>
<g><path style="opacity:0.435" fill="#737373" d="M 1620.5,841.5 C 1620.57,843.027 1619.91,844.027 1618.5,844.5C 1618.43,842.973 1619.09,841.973 1620.5,841.5 Z"/></g>
<g><path style="opacity:0.443" fill="#656565" d="M 1618.5,844.5 C 1618.57,846.027 1617.91,847.027 1616.5,847.5C 1616.43,845.973 1617.09,844.973 1618.5,844.5 Z"/></g>
<g><path style="opacity:0.004" fill="#000000" d="M 2330.5,846.5 C 2331.83,847.167 2331.83,847.167 2330.5,846.5 Z"/></g>
<g><path style="opacity:0.424" fill="#686868" d="M 1615.5,849.5 C 1615.57,851.027 1614.91,852.027 1613.5,852.5C 1613.43,850.973 1614.09,849.973 1615.5,849.5 Z"/></g>
<g><path style="opacity:0.004" fill="#000000" d="M 1575.5,856.5 C 1576.83,857.167 1576.83,857.167 1575.5,856.5 Z"/></g>
<g><path style="opacity:0.004" fill="#000000" d="M 1572.5,861.5 C 1573.83,862.167 1573.83,862.167 1572.5,861.5 Z"/></g>
<g><path style="opacity:0.004" fill="#000000" d="M 2345.5,871.5 C 2346.83,872.167 2346.83,872.167 2345.5,871.5 Z"/></g>
<g><path style="opacity:0.004" fill="#000000" d="M 1562.5,878.5 C 1563.83,879.167 1563.83,879.167 1562.5,878.5 Z"/></g>
<g><path style="opacity:0.004" fill="#000000" d="M 1557.5,886.5 C 1558.83,887.167 1558.83,887.167 1557.5,886.5 Z"/></g>
<g><path style="opacity:0.004" fill="#000000" d="M 2360.5,896.5 C 2361.83,897.167 2361.83,897.167 2360.5,896.5 Z"/></g>
<g><path style="opacity:0.51" fill="#b4b4b2" d="M 1886.5,864.5 C 1888.82,889.625 1889.82,914.958 1889.5,940.5C 1886.99,915.39 1885.99,890.057 1886.5,864.5 Z"/></g>
<g><path style="opacity:0.004" fill="#000000" d="M 2370.5,913.5 C 2371.83,914.167 2371.83,914.167 2370.5,913.5 Z"/></g>
<g><path style="opacity:0.439" fill="#6b6b6b" d="M 1573.5,918.5 C 1573.57,920.027 1572.91,921.027 1571.5,921.5C 1571.43,919.973 1572.09,918.973 1573.5,918.5 Z"/></g>
<g><path style="opacity:0.51" fill="#b3b3b1" d="M 1910.5,846.5 C 1910.91,876.4 1909.57,906.066 1906.5,935.5C 1906.68,905.606 1908.02,875.94 1910.5,846.5 Z"/></g>
<g><path style="opacity:0.435" fill="#727271" d="M 1570.5,923.5 C 1570.57,925.027 1569.91,926.027 1568.5,926.5C 1568.43,924.973 1569.09,923.973 1570.5,923.5 Z"/></g>
<g><path style="opacity:0.004" fill="#000000" d="M 1525.5,938.5 C 1526.83,939.167 1526.83,939.167 1525.5,938.5 Z"/></g>
<g><path style="opacity:0.004" fill="#000000" d="M 2385.5,938.5 C 2386.83,939.167 2386.83,939.167 2385.5,938.5 Z"/></g>
<g><path style="opacity:0.004" fill="#000000" d="M 1520.5,946.5 C 1521.83,947.167 1521.83,947.167 1520.5,946.5 Z"/></g>
<g><path style="opacity:0.004" fill="#000000" d="M 1510.5,963.5 C 1511.83,964.167 1511.83,964.167 1510.5,963.5 Z"/></g>
<g><path style="opacity:0.451" fill="#777776" d="M 1545.5,964.5 C 1545.57,966.027 1544.91,967.027 1543.5,967.5C 1543.43,965.973 1544.09,964.973 1545.5,964.5 Z"/></g>
<g><path style="opacity:0.51" fill="#a0a09d" d="M 1948.5,762.5 C 1949.5,998.333 1949.83,1234.33 1949.5,1470.5C 1948.45,1470.65 1947.45,1470.48 1946.5,1470C 1948.5,1234.38 1949.17,998.542 1948.5,762.5 Z"/></g>
<g><path style="opacity:0.004" fill="#000000" d="M 1492.5,993.5 C 1493.83,994.167 1493.83,994.167 1492.5,993.5 Z"/></g>
<g><path style="opacity:0.435" fill="#6a6a6a" d="M 1523.5,1000.5 C 1523.57,1002.03 1522.91,1003.03 1521.5,1003.5C 1521.43,1001.97 1522.09,1000.97 1523.5,1000.5 Z"/></g>
<g><path style="opacity:0.424" fill="#5c5c5b" d="M 1518.5,1008.5 C 1518.57,1010.03 1517.91,1011.03 1516.5,1011.5C 1516.43,1009.97 1517.09,1008.97 1518.5,1008.5 Z"/></g>
<g><path style="opacity:0.494" fill="#8c8c8c" d="M 1512.5,1018.5 C 1512.41,1020.85 1511.41,1022.51 1509.5,1023.5C 1509.75,1021.33 1510.75,1019.66 1512.5,1018.5 Z"/></g>
<g><path style="opacity:0.004" fill="#000000" d="M 1473.5,1023.5 C 1474.83,1024.17 1474.83,1024.17 1473.5,1023.5 Z"/></g>
<g><path style="opacity:0.455" fill="#727271" d="M 1506.5,1028.5 C 1506.57,1030.03 1505.91,1031.03 1504.5,1031.5C 1504.43,1029.97 1505.09,1028.97 1506.5,1028.5 Z"/></g>
<g><path style="opacity:0.443" fill="#6d6d6d" d="M 1498.5,1041.5 C 1498.57,1043.03 1497.91,1044.03 1496.5,1044.5C 1496.43,1042.97 1497.09,1041.97 1498.5,1041.5 Z"/></g>
<g><path style="opacity:0.004" fill="#000000" d="M 1460.5,1045.5 C 1461.83,1046.17 1461.83,1046.17 1460.5,1045.5 Z"/></g>
<g><path style="opacity:0.004" fill="#000000" d="M 1455.5,1053.5 C 1456.83,1054.17 1456.83,1054.17 1455.5,1053.5 Z"/></g>
<g><path style="opacity:0.004" fill="#000000" d="M 1445.5,1070.5 C 1446.83,1071.17 1446.83,1071.17 1445.5,1070.5 Z"/></g>
<g><path style="opacity:0.443" fill="#6c6c6c" d="M 1473.5,1082.5 C 1473.57,1084.03 1472.91,1085.03 1471.5,1085.5C 1471.43,1083.97 1472.09,1082.97 1473.5,1082.5 Z"/></g>
<g><path style="opacity:0.51" fill="#7e7e7d" d="M 1460.5,1103.5 C 1460.41,1105.85 1459.41,1107.51 1457.5,1108.5C 1457.75,1106.33 1458.75,1104.66 1460.5,1103.5 Z"/></g>
<g><path style="opacity:0.486" fill="#717170" d="M 1456.5,1110.5 C 1456.57,1112.03 1455.91,1113.03 1454.5,1113.5C 1454.43,1111.97 1455.09,1110.97 1456.5,1110.5 Z"/></g>
<g><path style="opacity:0.471" fill="#727272" d="M 1453.5,1115.5 C 1453.57,1117.03 1452.91,1118.03 1451.5,1118.5C 1451.43,1116.97 1452.09,1115.97 1453.5,1115.5 Z"/></g>
<g><path style="opacity:0.478" fill="#686867" d="M 1451.5,1118.5 C 1451.57,1120.03 1450.91,1121.03 1449.5,1121.5C 1449.43,1119.97 1450.09,1118.97 1451.5,1118.5 Z"/></g>
<g><path style="opacity:0.004" fill="#000000" d="M 1408.5,1130.5 C 1409.83,1131.17 1409.83,1131.17 1408.5,1130.5 Z"/></g>
<g><path style="opacity:0.51" fill="#2a2928" d="M 1962.5,1036.5 C 1962.83,1036.5 1963.17,1036.5 1963.5,1036.5C 1963.17,1180.33 1963.5,1324 1964.5,1467.5C 1964.5,1467.83 1964.5,1468.17 1964.5,1468.5C 1962.5,1324.84 1961.83,1180.84 1962.5,1036.5 Z"/></g>
<g><path style="opacity:0.004" fill="#000000" d="M 1398.5,1147.5 C 1399.83,1148.17 1399.83,1148.17 1398.5,1147.5 Z"/></g>
<g><path style="opacity:0.51" fill="#838382" d="M 1414.5,1178.5 C 1415.08,1181.29 1414.08,1182.95 1411.5,1183.5C 1412.36,1181.71 1413.36,1180.05 1414.5,1178.5 Z"/></g>
<g><path style="opacity:0.486" fill="#696968" d="M 1409.5,1187.5 C 1409.57,1189.03 1408.91,1190.03 1407.5,1190.5C 1407.43,1188.97 1408.09,1187.97 1409.5,1187.5 Z"/></g>
<g><path style="opacity:0.475" fill="#6c6c6b" d="M 1406.5,1192.5 C 1406.57,1194.03 1405.91,1195.03 1404.5,1195.5C 1404.43,1193.97 1405.09,1192.97 1406.5,1192.5 Z"/></g>
<g><path style="opacity:0.455" fill="#5f5f5e" d="M 1401.5,1200.5 C 1401.57,1202.03 1400.91,1203.03 1399.5,1203.5C 1399.43,1201.97 1400.09,1200.97 1401.5,1200.5 Z"/></g>
<g><path style="opacity:0.51" fill="#8a8a8a" d="M 1399.5,1203.5 C 1399.76,1205.99 1398.76,1207.66 1396.5,1208.5C 1397.11,1206.57 1398.11,1204.9 1399.5,1203.5 Z"/></g>
<g><path style="opacity:0.004" fill="#000000" d="M 1361.5,1207.5 C 1362.83,1208.17 1362.83,1208.17 1361.5,1207.5 Z"/></g>
<g><path style="opacity:0.478" fill="#707070" d="M 1381.5,1233.5 C 1381.57,1235.03 1380.91,1236.03 1379.5,1236.5C 1379.43,1234.97 1380.09,1233.97 1381.5,1233.5 Z"/></g>
<g><path style="opacity:0.004" fill="#000000" d="M 1343.5,1237.5 C 1344.83,1238.17 1344.83,1238.17 1343.5,1237.5 Z"/></g>
<g><path style="opacity:0.004" fill="#000000" d="M 1338.5,1245.5 C 1339.83,1246.17 1339.83,1246.17 1338.5,1245.5 Z"/></g>
<g><path style="opacity:0.51" fill="#c7c7c6" d="M 1455.5,1240.5 C 1456.14,1241.1 1456.47,1241.93 1456.5,1243C 1455.94,1248.98 1454.78,1254.81 1453,1260.5C 1429.74,1310.82 1404.4,1360.16 1377,1408.5C 1352.65,1455.54 1325.98,1501.21 1297,1545.5C 1295.05,1549.06 1293.39,1552.72 1292,1556.5C 1285.6,1564.95 1279.93,1573.95 1275,1583.5C 1273.67,1584.83 1272.33,1586.17 1271,1587.5C 1253.55,1617.43 1235.88,1647.1 1218,1676.5C 1212.65,1681.68 1207.48,1687.01 1202.5,1692.5C 1190.07,1694.03 1185.9,1688.7 1190,1676.5C 1199.32,1659.87 1208.65,1643.2 1218,1626.5C 1243.84,1583.18 1270.01,1539.85 1296.5,1496.5C 1337.11,1428.72 1377.94,1361.05 1419,1293.5C 1431.46,1275.9 1443.62,1258.24 1455.5,1240.5 Z"/></g>
<g><path style="opacity:0.471" fill="#6b6b6a" d="M 1356.5,1274.5 C 1356.57,1276.03 1355.91,1277.03 1354.5,1277.5C 1354.43,1275.97 1355.09,1274.97 1356.5,1274.5 Z"/></g>
<g><path style="opacity:0.459" fill="#5f5f5e" d="M 1351.5,1282.5 C 1351.57,1284.03 1350.91,1285.03 1349.5,1285.5C 1349.43,1283.97 1350.09,1282.97 1351.5,1282.5 Z"/></g>
<g><path style="opacity:0.51" fill="#8d8d8c" d="M 1349.5,1285.5 C 1349.4,1288.64 1348.07,1290.97 1345.5,1292.5C 1346.08,1289.67 1347.41,1287.34 1349.5,1285.5 Z"/></g>
<g><path style="opacity:0.506" fill="#8a8a89" d="M 1345.5,1292.5 C 1345.41,1294.85 1344.41,1296.51 1342.5,1297.5C 1342.75,1295.33 1343.75,1293.66 1345.5,1292.5 Z"/></g>
<g><path style="opacity:0.51" fill="#c6c6c5" d="M 1921.5,1303.5 C 1924.75,1316.38 1927.58,1329.38 1930,1342.5C 1930.59,1355.18 1930.43,1367.84 1929.5,1380.5C 1927.73,1388.44 1925.57,1388.44 1923,1380.5C 1919.4,1367.3 1916.4,1353.97 1914,1340.5C 1912.84,1330.52 1912.51,1320.52 1913,1310.5C 1913.62,1307.21 1915.12,1304.38 1917.5,1302C 1919.35,1301.23 1920.69,1301.73 1921.5,1303.5 Z"/></g>
<g><path style="opacity:0.486" fill="#727270" d="M 1339.5,1302.5 C 1339.57,1304.03 1338.91,1305.03 1337.5,1305.5C 1337.43,1303.97 1338.09,1302.97 1339.5,1302.5 Z"/></g>
<g><path style="opacity:0.467" fill="#737372" d="M 1336.5,1307.5 C 1336.57,1309.03 1335.91,1310.03 1334.5,1310.5C 1334.43,1308.97 1335.09,1307.97 1336.5,1307.5 Z"/></g>
<g><path style="opacity:0.004" fill="#000000" d="M 1296.5,1314.5 C 1297.83,1315.17 1297.83,1315.17 1296.5,1314.5 Z"/></g>
<g><path style="opacity:0.004" fill="#000000" d="M 1291.5,1322.5 C 1292.83,1323.17 1292.83,1323.17 1291.5,1322.5 Z"/></g>
<g><path style="opacity:0.004" fill="#000000" d="M 1278.5,1344.5 C 1279.83,1345.17 1279.83,1345.17 1278.5,1344.5 Z"/></g>
<g><path style="opacity:0.51" fill="#a5a5a4" d="M 1921.5,1303.5 C 1922.93,1305.6 1924.1,1307.93 1925,1310.5C 1926.62,1321.19 1928.78,1331.69 1931.5,1342C 1933.26,1355.11 1932.59,1367.94 1929.5,1380.5C 1930.43,1367.84 1930.59,1355.18 1930,1342.5C 1927.58,1329.38 1924.75,1316.38 1921.5,1303.5 Z"/></g>
<g><path style="opacity:0.494" fill="#787877" d="M 1299.5,1368.5 C 1299.26,1370.4 1298.26,1371.74 1296.5,1372.5C 1296.74,1370.6 1297.74,1369.26 1299.5,1368.5 Z"/></g>
<g><path style="opacity:0.459" fill="#535352" d="M 1296.5,1372.5 C 1296.57,1374.03 1295.91,1375.03 1294.5,1375.5C 1294.43,1373.97 1295.09,1372.97 1296.5,1372.5 Z"/></g>
<g><path style="opacity:0.467" fill="#6c6c6b" d="M 1289.5,1384.5 C 1289.57,1386.03 1288.91,1387.03 1287.5,1387.5C 1287.43,1385.97 1288.09,1384.97 1289.5,1384.5 Z"/></g>
<g><path style="opacity:0.463" fill="#666665" d="M 1281.5,1397.5 C 1281.57,1399.03 1280.91,1400.03 1279.5,1400.5C 1279.43,1398.97 1280.09,1397.97 1281.5,1397.5 Z"/></g>
<g><path style="opacity:0.004" fill="#000000" d="M 1241.5,1404.5 C 1242.83,1405.17 1242.83,1405.17 1241.5,1404.5 Z"/></g>
<g><path style="opacity:0.51" fill="#c5c5c4" d="M 1916.5,1409.5 C 1919.97,1408.87 1922.8,1409.87 1925,1412.5C 1927.41,1429.96 1926.74,1447.29 1923,1464.5C 1918.39,1469.74 1912.89,1473.9 1906.5,1477C 1869.6,1495.18 1831.93,1511.18 1793.5,1525C 1780.24,1530.05 1767.24,1535.55 1754.5,1541.5C 1754.17,1541.17 1753.83,1540.83 1753.5,1540.5C 1755.67,1538.51 1758,1536.67 1760.5,1535C 1795.74,1516.22 1830.74,1497.22 1865.5,1478C 1879.06,1471.19 1892.73,1464.52 1906.5,1458C 1907.33,1457.17 1908.17,1456.33 1909,1455.5C 1909.15,1444.46 1909.82,1433.46 1911,1422.5C 1911.79,1417.63 1913.62,1413.3 1916.5,1409.5 Z"/></g>
<g><path style="opacity:0.004" fill="#000000" d="M 1231.5,1421.5 C 1232.83,1422.17 1232.83,1422.17 1231.5,1421.5 Z"/></g>
<g><path style="opacity:0.004" fill="#000000" d="M 1226.5,1429.5 C 1227.83,1430.17 1227.83,1430.17 1226.5,1429.5 Z"/></g>
<g><path style="opacity:0.482" fill="#777777" d="M 1244.5,1458.5 C 1244.57,1460.03 1243.91,1461.03 1242.5,1461.5C 1242.43,1459.97 1243.09,1458.97 1244.5,1458.5 Z"/></g>
<g><path style="opacity:0.471" fill="#696968" d="M 1239.5,1466.5 C 1239.57,1468.03 1238.91,1469.03 1237.5,1469.5C 1237.43,1467.97 1238.09,1466.97 1239.5,1466.5 Z"/></g>
<g><path style="opacity:0.475" fill="#5c5c5b" d="M 1237.5,1469.5 C 1237.57,1471.03 1236.91,1472.03 1235.5,1472.5C 1235.43,1470.97 1236.09,1469.97 1237.5,1469.5 Z"/></g>
<g><path style="opacity:0.51" fill="#878785" d="M 1235.5,1472.5 C 1235.76,1474.99 1234.76,1476.66 1232.5,1477.5C 1233.11,1475.57 1234.11,1473.9 1235.5,1472.5 Z"/></g>
<g><path style="opacity:0.51" fill="#8d8d8b" d="M 1232.5,1477.5 C 1232.4,1480.64 1231.07,1482.97 1228.5,1484.5C 1229.08,1481.67 1230.41,1479.34 1232.5,1477.5 Z"/></g>
<g><path style="opacity:0.004" fill="#000000" d="M 1194.5,1481.5 C 1195.83,1482.17 1195.83,1482.17 1194.5,1481.5 Z"/></g>
<g><path style="opacity:0.51" fill="#262521" d="M 1965.5,1482.5 C 2214.96,1598.4 2464.3,1714.57 2713.5,1831C 2731.72,1838.78 2749.72,1847.11 2767.5,1856C 2822.21,1880.52 2876.55,1905.86 2930.5,1932C 2608.19,2122.64 2286.19,2313.48 1964.5,2504.5C 1962.5,2164.17 1961.83,1823.5 1962.5,1482.5C 1963.5,1482.5 1964.5,1482.5 1965.5,1482.5 Z"/></g>
<g><path style="opacity:0.51" fill="#474642" d="M 1946.5,1485.5 C 1946.83,1485.5 1947.17,1485.5 1947.5,1485.5C 1948.5,1826.46 1948.83,2167.46 1948.5,2508.5C 1947.17,2508.5 1945.83,2508.5 1944.5,2508.5C 1662.43,2341.45 1380.76,2173.28 1099.5,2004C 1053.21,1977.86 1007.54,1950.69 962.5,1922.5C 966.079,1920.24 969.746,1918.08 973.5,1916C 1298.23,1772.28 1622.56,1628.78 1946.5,1485.5 Z"/></g>
<g><path style="opacity:0.506" fill="#8a8a89" d="M 1228.5,1484.5 C 1228.41,1486.85 1227.41,1488.51 1225.5,1489.5C 1225.75,1487.33 1226.75,1485.66 1228.5,1484.5 Z"/></g>
<g><path style="opacity:0.486" fill="#727272" d="M 1222.5,1494.5 C 1222.57,1496.03 1221.91,1497.03 1220.5,1497.5C 1220.43,1495.97 1221.09,1494.97 1222.5,1494.5 Z"/></g>
<g><path style="opacity:0.004" fill="#000000" d="M 1184.5,1498.5 C 1185.83,1499.17 1185.83,1499.17 1184.5,1498.5 Z"/></g>
<g><path style="opacity:0.459" fill="#727271" d="M 1219.5,1499.5 C 1219.57,1501.03 1218.91,1502.03 1217.5,1502.5C 1217.43,1500.97 1218.09,1499.97 1219.5,1499.5 Z"/></g>
<g><path style="opacity:0.004" fill="#000000" d="M 1179.5,1506.5 C 1180.83,1507.17 1180.83,1507.17 1179.5,1506.5 Z"/></g>
<g><path style="opacity:0.475" fill="#6e6e6d" d="M 1214.5,1507.5 C 1214.57,1509.03 1213.91,1510.03 1212.5,1510.5C 1212.43,1508.97 1213.09,1507.97 1214.5,1507.5 Z"/></g>
<g><path style="opacity:0.004" fill="#000000" d="M 1166.5,1528.5 C 1167.83,1529.17 1167.83,1529.17 1166.5,1528.5 Z"/></g>
<g><path style="opacity:0.004" fill="#000000" d="M 1161.5,1536.5 C 1162.83,1537.17 1162.83,1537.17 1161.5,1536.5 Z"/></g>
<g><path style="opacity:0.475" fill="#626262" d="M 1192.5,1543.5 C 1192.57,1545.03 1191.91,1546.03 1190.5,1546.5C 1190.43,1544.97 1191.09,1543.97 1192.5,1543.5 Z"/></g>
<g><path style="opacity:0.51" fill="#464645" d="M 1773.5,1549.5 C 1772.49,1550.67 1771.15,1551.34 1769.5,1551.5C 1770.29,1549.9 1771.62,1549.23 1773.5,1549.5 Z"/></g>
<g><path style="opacity:0.455" fill="#545454" d="M 1187.5,1551.5 C 1187.57,1553.03 1186.91,1554.03 1185.5,1554.5C 1185.43,1552.97 1186.09,1551.97 1187.5,1551.5 Z"/></g>
<g><path style="opacity:0.51" fill="#848483" d="M 1184.5,1556.5 C 1184.41,1558.85 1183.41,1560.51 1181.5,1561.5C 1181.75,1559.33 1182.75,1557.66 1184.5,1556.5 Z"/></g>
<g><path style="opacity:0.51" fill="#838383" d="M 1181.5,1561.5 C 1181.41,1563.85 1180.41,1565.51 1178.5,1566.5C 1178.75,1564.33 1179.75,1562.66 1181.5,1561.5 Z"/></g>
<g><path style="opacity:0.482" fill="#777776" d="M 1177.5,1568.5 C 1177.57,1570.03 1176.91,1571.03 1175.5,1571.5C 1175.43,1569.97 1176.09,1568.97 1177.5,1568.5 Z"/></g>
<g><path style="opacity:0.478" fill="#70706f" d="M 1172.5,1576.5 C 1172.57,1578.03 1171.91,1579.03 1170.5,1579.5C 1170.43,1577.97 1171.09,1576.97 1172.5,1576.5 Z"/></g>
<g><path style="opacity:0.51" fill="#393938" d="M 1712.5,1576.5 C 1710.81,1578.82 1708.48,1579.82 1705.5,1579.5C 1707.6,1578.09 1709.94,1577.09 1712.5,1576.5 Z"/></g>
<g><path style="opacity:0.004" fill="#000000" d="M 1129.5,1588.5 C 1130.83,1589.17 1130.83,1589.17 1129.5,1588.5 Z"/></g>
<g><path style="opacity:0.004" fill="#000000" d="M 2775.5,1588.5 C 2776.83,1589.17 2776.83,1589.17 2775.5,1588.5 Z"/></g>
<g><path style="opacity:0.004" fill="#000000" d="M 1124.5,1596.5 C 1125.83,1597.17 1125.83,1597.17 1124.5,1596.5 Z"/></g>
<g><path style="opacity:0.004" fill="#000000" d="M 1114.5,1613.5 C 1115.83,1614.17 1115.83,1614.17 1114.5,1613.5 Z"/></g>
<g><path style="opacity:0.004" fill="#000000" d="M 2790.5,1613.5 C 2791.83,1614.17 2791.83,1614.17 2790.5,1613.5 Z"/></g>
<g><path style="opacity:0.478" fill="#747473" d="M 1144.5,1622.5 C 1144.16,1625.2 1142.82,1627.2 1140.5,1628.5C 1141.34,1626.15 1142.67,1624.15 1144.5,1622.5 Z"/></g>
<g><path style="opacity:0.51" fill="#2e2e2e" d="M 1593.5,1629.5 C 1593.53,1630.5 1593.03,1631.16 1592,1631.5C 1588.97,1632.13 1586.13,1633.13 1583.5,1634.5C 1583.95,1633.54 1584.62,1632.71 1585.5,1632C 1588.28,1631.44 1590.95,1630.61 1593.5,1629.5 Z"/></g>
<g><path style="opacity:0.004" fill="#000000" d="M 2805.5,1638.5 C 2806.83,1639.17 2806.83,1639.17 2805.5,1638.5 Z"/></g>
<g><path style="opacity:0.478" fill="#757574" d="M 1127.5,1650.5 C 1127.57,1652.03 1126.91,1653.03 1125.5,1653.5C 1125.43,1651.97 1126.09,1650.97 1127.5,1650.5 Z"/></g>
<g><path style="opacity:0.482" fill="#676766" d="M 1125.5,1653.5 C 1125.57,1655.03 1124.91,1656.03 1123.5,1656.5C 1123.43,1654.97 1124.09,1653.97 1125.5,1653.5 Z"/></g>
<g><path style="opacity:0.467" fill="#686867" d="M 1122.5,1658.5 C 1122.57,1660.03 1121.91,1661.03 1120.5,1661.5C 1120.43,1659.97 1121.09,1658.97 1122.5,1658.5 Z"/></g>
<g><path style="opacity:0.004" fill="#000000" d="M 1082.5,1665.5 C 1083.83,1666.17 1083.83,1666.17 1082.5,1665.5 Z"/></g>
<g><path style="opacity:0.482" fill="#737373" d="M 1116.5,1668.5 C 1116.57,1670.03 1115.91,1671.03 1114.5,1671.5C 1114.43,1669.97 1115.09,1668.97 1116.5,1668.5 Z"/></g>
<g><path style="opacity:0.004" fill="#000000" d="M 1077.5,1673.5 C 1078.83,1674.17 1078.83,1674.17 1077.5,1673.5 Z"/></g>
<g><path style="opacity:0.486" fill="#727271" d="M 1105.5,1686.5 C 1105.57,1688.03 1104.91,1689.03 1103.5,1689.5C 1103.43,1687.97 1104.09,1686.97 1105.5,1686.5 Z"/></g>
<g><path style="opacity:0.51" fill="#3a3a39" d="M 1464.5,1686.5 C 1461.3,1689.12 1457.64,1690.79 1453.5,1691.5C 1456.85,1689.27 1460.52,1687.6 1464.5,1686.5 Z"/></g>
<g><path style="opacity:0.482" fill="#777776" d="M 1102.5,1691.5 C 1102.57,1693.03 1101.91,1694.03 1100.5,1694.5C 1100.43,1692.97 1101.09,1691.97 1102.5,1691.5 Z"/></g>
<g><path style="opacity:0.004" fill="#000000" d="M 1064.5,1695.5 C 1065.83,1696.17 1065.83,1696.17 1064.5,1695.5 Z"/></g>
<g><path style="opacity:0.51" fill="#373737" d="M 1444.5,1695.5 C 1442.97,1697.25 1440.97,1698.25 1438.5,1698.5C 1440.03,1696.75 1442.03,1695.75 1444.5,1695.5 Z"/></g>
<g><path style="opacity:0.478" fill="#6f6f6e" d="M 1097.5,1699.5 C 1097.57,1701.03 1096.91,1702.03 1095.5,1702.5C 1095.43,1700.97 1096.09,1699.97 1097.5,1699.5 Z"/></g>
<g><path style="opacity:0.004" fill="#000000" d="M 2845.5,1705.5 C 2846.83,1706.17 2846.83,1706.17 2845.5,1705.5 Z"/></g>
<g><path style="opacity:0.004" fill="#000000" d="M 1049.5,1720.5 C 1050.83,1721.17 1050.83,1721.17 1049.5,1720.5 Z"/></g>
<g><path style="opacity:0.506" fill="#777776" d="M 1083.5,1721.5 C 1083.76,1723.99 1082.76,1725.66 1080.5,1726.5C 1081.36,1724.71 1082.36,1723.05 1083.5,1721.5 Z"/></g>
<g><path style="opacity:0.004" fill="#000000" d="M 2860.5,1730.5 C 2861.83,1731.17 2861.83,1731.17 2860.5,1730.5 Z"/></g>
<g><path style="opacity:0.51" fill="#363636" d="M 1356.5,1734.5 C 1354.97,1736.25 1352.97,1737.25 1350.5,1737.5C 1352.03,1735.75 1354.03,1734.75 1356.5,1734.5 Z"/></g>
<g><path style="opacity:0.471" fill="#616160" d="M 1075.5,1735.5 C 1075.57,1737.03 1074.91,1738.03 1073.5,1738.5C 1073.43,1736.97 1074.09,1735.97 1075.5,1735.5 Z"/></g>
<g><path style="opacity:0.447" fill="#5b5b5b" d="M 1067.5,1748.5 C 1067.57,1750.03 1066.91,1751.03 1065.5,1751.5C 1065.43,1749.97 1066.09,1748.97 1067.5,1748.5 Z"/></g>
<g><path style="opacity:0.443" fill="#767675" d="M 1060.5,1760.5 C 1060.57,1762.03 1059.91,1763.03 1058.5,1763.5C 1058.43,1761.97 1059.09,1760.97 1060.5,1760.5 Z"/></g>
<g><path style="opacity:0.439" fill="#6d6d6c" d="M 1055.5,1768.5 C 1055.57,1770.03 1054.91,1771.03 1053.5,1771.5C 1053.43,1769.97 1054.09,1768.97 1055.5,1768.5 Z"/></g>
<g><path style="opacity:0.51" fill="#10100e" d="M 1965.5,1482.5 C 1964.5,1482.5 1963.5,1482.5 1962.5,1482.5C 1961.83,1823.5 1962.5,2164.17 1964.5,2504.5C 1963.79,2505.4 1962.79,2505.74 1961.5,2505.5C 1961.5,2164.17 1961.5,1822.83 1961.5,1481.5C 1963.1,1481.23 1964.43,1481.57 1965.5,1482.5 Z"/></g>
<g><path style="opacity:0.004" fill="#000000" d="M 1017.5,1772.5 C 1018.83,1773.17 1018.83,1773.17 1017.5,1772.5 Z"/></g>
<g><path style="opacity:0.004" fill="#000000" d="M 1012.5,1780.5 C 1013.83,1781.17 1013.83,1781.17 1012.5,1780.5 Z"/></g>
<g><path style="opacity:0.004" fill="#000000" d="M 1002.5,1797.5 C 1003.83,1798.17 1003.83,1798.17 1002.5,1797.5 Z"/></g>
<g><path style="opacity:0.004" fill="#000000" d="M 2902.5,1800.5 C 2903.83,1801.17 2903.83,1801.17 2902.5,1800.5 Z"/></g>
<g><path style="opacity:0.51" fill="#353535" d="M 1207.5,1800.5 C 1205.81,1802.82 1203.48,1803.82 1200.5,1803.5C 1202.6,1802.09 1204.94,1801.09 1207.5,1800.5 Z"/></g>
<g><path style="opacity:0.51" fill="#3b3b3a" d="M 1200.5,1803.5 C 1198.39,1805.77 1195.72,1807.1 1192.5,1807.5C 1194.84,1805.6 1197.5,1804.27 1200.5,1803.5 Z"/></g>
<g><path style="opacity:0.004" fill="#000000" d="M 997.5,1810.5 C 996.833,1809.17 996.833,1809.17 997.5,1810.5 Z"/></g>
<g><path style="opacity:0.004" fill="#000000" d="M 2912.5,1817.5 C 2913.83,1818.17 2913.83,1818.17 2912.5,1817.5 Z"/></g>
<g><path style="opacity:0.004" fill="#000000" d="M 2917.5,1825.5 C 2918.83,1826.17 2918.83,1826.17 2917.5,1825.5 Z"/></g>
<g><path style="opacity:0.447" fill="#6d6d6d" d="M 1013.5,1837.5 C 1013.57,1839.03 1012.91,1840.03 1011.5,1840.5C 1011.43,1838.97 1012.09,1837.97 1013.5,1837.5 Z"/></g>
<g><path style="opacity:0.004" fill="#000000" d="M 2927.5,1842.5 C 2928.83,1843.17 2928.83,1843.17 2927.5,1842.5 Z"/></g>
<g><path style="opacity:0.439" fill="#636362" d="M 1008.5,1845.5 C 1008.57,1847.03 1007.91,1848.03 1006.5,1848.5C 1006.43,1846.97 1007.09,1845.97 1008.5,1845.5 Z"/></g>
<g><path style="opacity:0.51" fill="#353535" d="M 1105.5,1845.5 C 1103.81,1847.82 1101.48,1848.82 1098.5,1848.5C 1100.6,1847.09 1102.94,1846.09 1105.5,1845.5 Z"/></g>
<g><path style="opacity:0.42" fill="#656564" d="M 1005.5,1850.5 C 1005.57,1852.03 1004.91,1853.03 1003.5,1853.5C 1003.43,1851.97 1004.09,1850.97 1005.5,1850.5 Z"/></g>
<g><path style="opacity:0.004" fill="#000000" d="M 965.5,1857.5 C 966.833,1858.17 966.833,1858.17 965.5,1857.5 Z"/></g>
<g><path style="opacity:0.004" fill="#000000" d="M 2942.5,1867.5 C 2943.83,1868.17 2943.83,1868.17 2942.5,1867.5 Z"/></g>
<g><path style="opacity:0.51" fill="#9b9b9a" d="M 990.5,1875.5 C 990.224,1879.08 988.557,1881.75 985.5,1883.5C 986.669,1880.49 988.336,1877.82 990.5,1875.5 Z"/></g>
<g><path style="opacity:0.51" fill="#3e3e3d" d="M 1026.5,1880.5 C 1024.81,1882.82 1022.48,1883.82 1019.5,1883.5C 1021.6,1882.09 1023.94,1881.09 1026.5,1880.5 Z"/></g>
<g><path style="opacity:0.004" fill="#000000" d="M 947.5,1887.5 C 948.833,1888.17 948.833,1888.17 947.5,1887.5 Z"/></g>
<g><path style="opacity:0.004" fill="#000000" d="M 2957.5,1892.5 C 2958.83,1893.17 2958.83,1893.17 2957.5,1892.5 Z"/></g>
<g><path style="opacity:0.51" fill="#3f3f3f" d="M 988.5,1897.5 C 986.815,1899.82 984.481,1900.82 981.5,1900.5C 983.604,1899.09 985.937,1898.09 988.5,1897.5 Z"/></g>
<g><path style="opacity:0.004" fill="#000000" d="M 2967.5,1909.5 C 2968.83,1910.17 2968.83,1910.17 2967.5,1909.5 Z"/></g>
<g><path style="opacity:0.004" fill="#000000" d="M 942.5,1945.5 C 943.833,1946.17 943.833,1946.17 942.5,1945.5 Z"/></g>
<g><path style="opacity:0.004" fill="#000000" d="M 2945.5,1957.5 C 2946.83,1958.17 2946.83,1958.17 2945.5,1957.5 Z"/></g>
<g><path style="opacity:0.004" fill="#000000" d="M 987.5,1972.5 C 988.833,1973.17 988.833,1973.17 987.5,1972.5 Z"/></g>
<g><path style="opacity:0.004" fill="#000000" d="M 1012.5,1987.5 C 1013.83,1988.17 1013.83,1988.17 1012.5,1987.5 Z"/></g>
<g><path style="opacity:0.004" fill="#000000" d="M 1037.5,2002.5 C 1038.83,2003.17 1038.83,2003.17 1037.5,2002.5 Z"/></g>
<g><path style="opacity:0.004" fill="#000000" d="M 2863.5,2005.5 C 2864.83,2006.17 2864.83,2006.17 2863.5,2005.5 Z"/></g>
<g><path style="opacity:0.004" fill="#000000" d="M 2855.5,2010.5 C 2856.83,2011.17 2856.83,2011.17 2855.5,2010.5 Z"/></g>
<g><path style="opacity:0.004" fill="#000000" d="M 2818.5,2032.5 C 2819.83,2033.17 2819.83,2033.17 2818.5,2032.5 Z"/></g>
<g><path style="opacity:0.51" fill="#383734" d="M 1946.5,1485.5 C 1947.57,1484.57 1948.9,1484.23 1950.5,1484.5C 1950.5,1826.83 1950.5,2169.17 1950.5,2511.5C 1948.03,2511.35 1946.03,2510.35 1944.5,2508.5C 1945.83,2508.5 1947.17,2508.5 1948.5,2508.5C 1949.17,2339.71 1949.5,2169.54 1949.5,1998C 1949.5,1826.83 1948.83,1656 1947.5,1485.5C 1947.17,1485.5 1946.83,1485.5 1946.5,1485.5 Z"/></g>
<g><path style="opacity:0.004" fill="#000000" d="M 2810.5,2037.5 C 2811.83,2038.17 2811.83,2038.17 2810.5,2037.5 Z"/></g>
<g><path style="opacity:0.004" fill="#000000" d="M 2793.5,2047.5 C 2794.83,2048.17 2794.83,2048.17 2793.5,2047.5 Z"/></g>
<g><path style="opacity:0.004" fill="#000000" d="M 2773.5,2059.5 C 2774.83,2060.17 2774.83,2060.17 2773.5,2059.5 Z"/></g>
<g><path style="opacity:0.51" fill="#504f4a" d="M 1947.5,1485.5 C 1948.83,1656 1949.5,1826.83 1949.5,1998C 1949.5,2169.54 1949.17,2339.71 1948.5,2508.5C 1948.83,2167.46 1948.5,1826.46 1947.5,1485.5 Z"/></g>
<g><path style="opacity:0.004" fill="#000000" d="M 1177.5,2083.5 C 1176.83,2084.17 1176.83,2084.17 1177.5,2083.5 Z"/></g>
<g><path style="opacity:0.004" fill="#000000" d="M 2708.5,2097.5 C 2709.83,2098.17 2709.83,2098.17 2708.5,2097.5 Z"/></g>
<g><path style="opacity:0.004" fill="#000000" d="M 2691.5,2107.5 C 2692.83,2108.17 2692.83,2108.17 2691.5,2107.5 Z"/></g>
<g><path style="opacity:0.004" fill="#000000" d="M 1219.5,2108.5 C 1218.83,2109.17 1218.83,2109.17 1219.5,2108.5 Z"/></g>
<g><path style="opacity:0.48" fill="#010101" d="M 2789.5,2379.5 C 2512.54,2770.99 2234.88,3162.99 1956.5,3555.5C 1950.88,3563.62 1943.21,3566.79 1933.5,3565C 1931.24,3563.88 1929.24,3562.38 1927.5,3560.5C 1680.08,3209.92 1431.91,2858.92 1183,2507.5C 1098.83,2387.17 1014.17,2267.17 929,2147.5C 925.331,2143.33 923.164,2138.5 922.5,2133C 923.025,2126.95 926.025,2122.61 931.5,2120C 936.257,2119.19 940.924,2119.52 945.5,2121C 945.167,2121.33 944.833,2121.67 944.5,2122C 1276.54,2319.09 1610.04,2516.92 1945,2715.5C 2002.44,2681.47 2058.61,2647.8 2113.5,2614.5C 2122.08,2609.72 2130.41,2604.72 2138.5,2599.5C 2404.54,2439.48 2670.87,2279.98 2937.5,2121C 2945.54,2108.16 2954.54,2107.32 2964.5,2118.5C 2969.94,2129.04 2967.44,2137.04 2957,2142.5C 2901.16,2221.53 2845.32,2300.53 2789.5,2379.5 Z"/></g>
<g><path style="opacity:0.004" fill="#000000" d="M 2683.5,2112.5 C 2684.83,2113.17 2684.83,2113.17 2683.5,2112.5 Z"/></g>
<g><path style="opacity:0.004" fill="#000000" d="M 2936.5,2118.5 C 2937.83,2119.17 2937.83,2119.17 2936.5,2118.5 Z"/></g>
<g><path style="opacity:0.004" fill="#000000" d="M 948.5,2121.5 C 949.833,2122.17 949.833,2122.17 948.5,2121.5 Z"/></g>
<g><path style="opacity:0.004" fill="#000000" d="M 2666.5,2122.5 C 2667.83,2123.17 2667.83,2123.17 2666.5,2122.5 Z"/></g>
<g><path style="opacity:0.004" fill="#000000" d="M 953.5,2124.5 C 954.833,2125.17 954.833,2125.17 953.5,2124.5 Z"/></g>
<g><path style="opacity:0.004" fill="#000000" d="M 1256.5,2132.5 C 1257.83,2133.17 1257.83,2133.17 1256.5,2132.5 Z"/></g>
<g><path style="opacity:0.004" fill="#000000" d="M 2646.5,2134.5 C 2647.83,2135.17 2647.83,2135.17 2646.5,2134.5 Z"/></g>
<g><path style="opacity:0.004" fill="#000000" d="M 973.5,2136.5 C 974.833,2137.17 974.833,2137.17 973.5,2136.5 Z"/></g>
<g><path style="opacity:0.004" fill="#000000" d="M 1273.5,2142.5 C 1274.83,2143.17 1274.83,2143.17 1273.5,2142.5 Z"/></g>
<g><path style="opacity:0.004" fill="#000000" d="M 2959.5,2142.5 C 2960.83,2143.17 2960.83,2143.17 2959.5,2142.5 Z"/></g>
<g><path style="opacity:0.004" fill="#000000" d="M 1281.5,2147.5 C 1282.83,2148.17 1282.83,2148.17 1281.5,2147.5 Z"/></g>
<g><path style="opacity:0.004" fill="#000000" d="M 998.5,2151.5 C 999.833,2152.17 999.833,2152.17 998.5,2151.5 Z"/></g>
<g><path style="opacity:0.004" fill="#000000" d="M 2877.5,2153.5 C 2878.83,2154.17 2878.83,2154.17 2877.5,2153.5 Z"/></g>
<g><path style="opacity:0.004" fill="#000000" d="M 2950.5,2154.5 C 2951.83,2155.17 2951.83,2155.17 2950.5,2154.5 Z"/></g>
<g><path style="opacity:0.004" fill="#000000" d="M 1298.5,2157.5 C 1299.83,2158.17 1299.83,2158.17 1298.5,2157.5 Z"/></g>
<g><path style="opacity:0.004" fill="#000000" d="M 2869.5,2158.5 C 2870.83,2159.17 2870.83,2159.17 2869.5,2158.5 Z"/></g>
<g><path style="opacity:0.004" fill="#000000" d="M 2947.5,2159.5 C 2948.83,2160.17 2948.83,2160.17 2947.5,2159.5 Z"/></g>
<g><path style="opacity:0.004" fill="#000000" d="M 1015.5,2161.5 C 1016.83,2162.17 1016.83,2162.17 1015.5,2161.5 Z"/></g>
<g><path style="opacity:0.004" fill="#000000" d="M 937.5,2162.5 C 938.833,2163.17 938.833,2163.17 937.5,2162.5 Z"/></g>
<g><path style="opacity:0.004" fill="#000000" d="M 1306.5,2162.5 C 1307.83,2163.17 1307.83,2163.17 1306.5,2162.5 Z"/></g>
<g><path style="opacity:0.004" fill="#000000" d="M 2942.5,2166.5 C 2943.83,2167.17 2943.83,2167.17 2942.5,2166.5 Z"/></g>
<g><path style="opacity:0.004" fill="#000000" d="M 2852.5,2168.5 C 2853.83,2169.17 2853.83,2169.17 2852.5,2168.5 Z"/></g>
<g><path style="opacity:0.004" fill="#000000" d="M 942.5,2169.5 C 943.833,2170.17 943.833,2170.17 942.5,2169.5 Z"/></g>
<g><path style="opacity:0.004" fill="#000000" d="M 945.5,2174.5 C 946.833,2175.17 946.833,2175.17 945.5,2174.5 Z"/></g>
<g><path style="opacity:0.004" fill="#000000" d="M 1043.5,2178.5 C 1044.83,2179.17 1044.83,2179.17 1043.5,2178.5 Z"/></g>
<g><path style="opacity:0.004" fill="#000000" d="M 2564.5,2182.5 C 2565.83,2183.17 2565.83,2183.17 2564.5,2182.5 Z"/></g>
<g><path style="opacity:0.004" fill="#000000" d="M 2930.5,2182.5 C 2931.83,2183.17 2931.83,2183.17 2930.5,2182.5 Z"/></g>
<g><path style="opacity:0.004" fill="#000000" d="M 2827.5,2183.5 C 2828.83,2184.17 2828.83,2184.17 2827.5,2183.5 Z"/></g>
<g><path style="opacity:0.51" fill="#42413f" d="M 1952.5,3511.5 C 1951.84,3255.63 1952.5,2999.96 1954.5,2744.5C 1954.5,2743.83 1954.5,2743.17 1954.5,2742.5C 2267.89,2553.22 2582.22,2364.89 2897.5,2177.5C 2897.65,2178.55 2897.48,2179.55 2897,2180.5C 2821.93,2284.97 2747.6,2389.97 2674,2495.5C 2538.43,2685.62 2403.1,2875.95 2268,3066.5C 2193.32,3172.51 2118.65,3278.51 2044,3384.5C 2013.63,3427.02 1983.13,3469.35 1952.5,3511.5 Z"/></g>
<g><path style="opacity:0.51" fill="#c4c4c3" d="M 1015.5,2196.5 C 1024.46,2207.05 1032.96,2218.05 1041,2229.5C 1075.7,2280.91 1111.36,2331.58 1148,2381.5C 1148.15,2384.52 1149.65,2386.19 1152.5,2386.5C 1152.59,2388.68 1153.25,2390.68 1154.5,2392.5C 1318.41,2624.2 1481.58,2856.2 1644,3088.5C 1739.35,3222.86 1834.35,3357.53 1929,3492.5C 1929.83,3497.2 1929.66,3501.87 1928.5,3506.5C 1927.26,3507.25 1925.93,3507.58 1924.5,3507.5C 1761.55,3278.02 1599.05,3048.02 1437,2817.5C 1434.67,2814.83 1432.33,2812.17 1430,2809.5C 1283.14,2600.44 1135.81,2391.77 988,2183.5C 987.568,2182.4 988.068,2181.73 989.5,2181.5C 998.451,2185.98 1007.12,2190.98 1015.5,2196.5 Z"/></g>
<g><path style="opacity:0.004" fill="#000000" d="M 1060.5,2188.5 C 1061.83,2189.17 1061.83,2189.17 1060.5,2188.5 Z"/></g>
<g><path style="opacity:0.004" fill="#000000" d="M 2925.5,2189.5 C 2926.83,2190.17 2926.83,2190.17 2925.5,2189.5 Z"/></g>
<g><path style="opacity:0.004" fill="#000000" d="M 2810.5,2193.5 C 2811.83,2194.17 2811.83,2194.17 2810.5,2193.5 Z"/></g>
<g><path style="opacity:0.004" fill="#000000" d="M 2922.5,2194.5 C 2923.83,2195.17 2923.83,2195.17 2922.5,2194.5 Z"/></g>
<g><path style="opacity:0.004" fill="#000000" d="M 2802.5,2198.5 C 2803.83,2199.17 2803.83,2199.17 2802.5,2198.5 Z"/></g>
<g><path style="opacity:0.004" fill="#000000" d="M 1368.5,2199.5 C 1369.83,2200.17 1369.83,2200.17 1368.5,2199.5 Z"/></g>
<g><path style="opacity:0.004" fill="#000000" d="M 1376.5,2204.5 C 1377.83,2205.17 1377.83,2205.17 1376.5,2204.5 Z"/></g>
<g><path style="opacity:0.51" fill="#949492" d="M 1015.5,2196.5 C 1058.05,2221.27 1100.38,2246.27 1142.5,2271.5C 1144.84,2275.06 1148.17,2277.06 1152.5,2277.5C 1278.15,2351.32 1403.48,2425.66 1528.5,2500.5C 1530.84,2504.06 1534.17,2506.06 1538.5,2506.5C 1671.44,2585.46 1804.44,2664.13 1937.5,2742.5C 1937.5,3002.17 1937.5,3261.83 1937.5,3521.5C 1936.83,3262.67 1936.17,3003.67 1935.5,2744.5C 1935.16,3002.64 1934.16,3260.64 1932.5,3518.5C 1929.59,3515.02 1926.92,3511.35 1924.5,3507.5C 1925.93,3507.58 1927.26,3507.25 1928.5,3506.5C 1929.66,3501.87 1929.83,3497.2 1929,3492.5C 1834.35,3357.53 1739.35,3222.86 1644,3088.5C 1481.58,2856.2 1318.41,2624.2 1154.5,2392.5C 1153.25,2390.68 1152.59,2388.68 1152.5,2386.5C 1149.65,2386.19 1148.15,2384.52 1148,2381.5C 1111.36,2331.58 1075.7,2280.91 1041,2229.5C 1032.96,2218.05 1024.46,2207.05 1015.5,2196.5 Z"/></g>
<g><path style="opacity:0.004" fill="#000000" d="M 2785.5,2208.5 C 2786.83,2209.17 2786.83,2209.17 2785.5,2208.5 Z"/></g>
<g><path style="opacity:0.004" fill="#000000" d="M 1385.5,2209.5 C 1386.83,2210.17 1386.83,2210.17 1385.5,2209.5 Z"/></g>
<g><path style="opacity:0.004" fill="#000000" d="M 2519.5,2209.5 C 2520.83,2210.17 2520.83,2210.17 2519.5,2209.5 Z"/></g>
<g><path style="opacity:0.004" fill="#000000" d="M 2910.5,2211.5 C 2911.83,2212.17 2911.83,2212.17 2910.5,2211.5 Z"/></g>
<g><path style="opacity:0.004" fill="#000000" d="M 2777.5,2213.5 C 2778.83,2214.17 2778.83,2214.17 2777.5,2213.5 Z"/></g>
<g><path style="opacity:0.004" fill="#000000" d="M 1393.5,2214.5 C 1394.83,2215.17 1394.83,2215.17 1393.5,2214.5 Z"/></g>
<g><path style="opacity:0.004" fill="#000000" d="M 977.5,2219.5 C 978.833,2220.17 978.833,2220.17 977.5,2219.5 Z"/></g>
<g><path style="opacity:0.004" fill="#000000" d="M 2760.5,2223.5 C 2761.83,2224.17 2761.83,2224.17 2760.5,2223.5 Z"/></g>
<g><path style="opacity:0.004" fill="#000000" d="M 1410.5,2224.5 C 1411.83,2225.17 1411.83,2225.17 1410.5,2224.5 Z"/></g>
<g><path style="opacity:0.004" fill="#000000" d="M 2494.5,2224.5 C 2495.83,2225.17 2495.83,2225.17 2494.5,2224.5 Z"/></g>
<g><path style="opacity:0.004" fill="#000000" d="M 982.5,2226.5 C 983.833,2227.17 983.833,2227.17 982.5,2226.5 Z"/></g>
<g><path style="opacity:0.004" fill="#000000" d="M 2752.5,2228.5 C 2753.83,2229.17 2753.83,2229.17 2752.5,2228.5 Z"/></g>
<g><path style="opacity:0.004" fill="#000000" d="M 1418.5,2229.5 C 1419.83,2230.17 1419.83,2230.17 1418.5,2229.5 Z"/></g>
<g><path style="opacity:0.004" fill="#000000" d="M 985.5,2231.5 C 986.833,2232.17 986.833,2232.17 985.5,2231.5 Z"/></g>
<g><path style="opacity:0.004" fill="#000000" d="M 2474.5,2236.5 C 2475.83,2237.17 2475.83,2237.17 2474.5,2236.5 Z"/></g>
<g><path style="opacity:0.004" fill="#000000" d="M 2735.5,2238.5 C 2736.83,2239.17 2736.83,2239.17 2735.5,2238.5 Z"/></g>
<g><path style="opacity:0.004" fill="#000000" d="M 1435.5,2239.5 C 1436.83,2240.17 1436.83,2240.17 1435.5,2239.5 Z"/></g>
<g><path style="opacity:0.004" fill="#000000" d="M 2890.5,2239.5 C 2891.83,2240.17 2891.83,2240.17 2890.5,2239.5 Z"/></g>
<g><path style="opacity:0.004" fill="#000000" d="M 2727.5,2243.5 C 2728.83,2244.17 2728.83,2244.17 2727.5,2243.5 Z"/></g>
<g><path style="opacity:0.004" fill="#000000" d="M 2885.5,2246.5 C 2886.83,2247.17 2886.83,2247.17 2885.5,2246.5 Z"/></g>
<g><path style="opacity:0.004" fill="#000000" d="M 2710.5,2253.5 C 2711.83,2254.17 2711.83,2254.17 2710.5,2253.5 Z"/></g>
<g><path style="opacity:0.004" fill="#000000" d="M 1002.5,2254.5 C 1003.83,2255.17 1003.83,2255.17 1002.5,2254.5 Z"/></g>
<g><path style="opacity:0.004" fill="#000000" d="M 1005.5,2259.5 C 1006.83,2260.17 1006.83,2260.17 1005.5,2259.5 Z"/></g>
<g><path style="opacity:0.004" fill="#000000" d="M 1187.5,2263.5 C 1188.83,2264.17 1188.83,2264.17 1187.5,2263.5 Z"/></g>
<g><path style="opacity:0.004" fill="#000000" d="M 2693.5,2263.5 C 2694.83,2264.17 2694.83,2264.17 2693.5,2263.5 Z"/></g>
<g><path style="opacity:0.004" fill="#000000" d="M 1480.5,2266.5 C 1481.83,2267.17 1481.83,2267.17 1480.5,2266.5 Z"/></g>
<g><path style="opacity:0.004" fill="#000000" d="M 2685.5,2268.5 C 2686.83,2269.17 2686.83,2269.17 2685.5,2268.5 Z"/></g>
<g><path style="opacity:0.004" fill="#000000" d="M 1014.5,2271.5 C 1015.83,2272.17 1015.83,2272.17 1014.5,2271.5 Z"/></g>
<g><path style="opacity:0.004" fill="#000000" d="M 1488.5,2271.5 C 1489.83,2272.17 1489.83,2272.17 1488.5,2271.5 Z"/></g>
<g><path style="opacity:0.004" fill="#000000" d="M 1204.5,2273.5 C 1205.83,2274.17 1205.83,2274.17 1204.5,2273.5 Z"/></g>
<g><path style="opacity:0.004" fill="#000000" d="M 2865.5,2274.5 C 2866.83,2275.17 2866.83,2275.17 2865.5,2274.5 Z"/></g>
<g><path style="opacity:0.498" fill="#6e6e6d" d="M 1142.5,2271.5 C 1145.85,2273.51 1149.18,2275.51 1152.5,2277.5C 1148.17,2277.06 1144.84,2275.06 1142.5,2271.5 Z"/></g>
<g><path style="opacity:0.004" fill="#000000" d="M 1017.5,2276.5 C 1018.83,2277.17 1018.83,2277.17 1017.5,2276.5 Z"/></g>
<g><path style="opacity:0.004" fill="#000000" d="M 1212.5,2278.5 C 1213.83,2279.17 1213.83,2279.17 1212.5,2278.5 Z"/></g>
<g><path style="opacity:0.004" fill="#000000" d="M 2668.5,2278.5 C 2669.83,2279.17 2669.83,2279.17 2668.5,2278.5 Z"/></g>
<g><path style="opacity:0.004" fill="#000000" d="M 1505.5,2281.5 C 1506.83,2282.17 1506.83,2282.17 1505.5,2281.5 Z"/></g>
<g><path style="opacity:0.004" fill="#000000" d="M 2660.5,2283.5 C 2661.83,2284.17 2661.83,2284.17 2660.5,2283.5 Z"/></g>
<g><path style="opacity:0.004" fill="#000000" d="M 2392.5,2284.5 C 2393.83,2285.17 2393.83,2285.17 2392.5,2284.5 Z"/></g>
<g><path style="opacity:0.004" fill="#000000" d="M 2857.5,2286.5 C 2858.83,2287.17 2858.83,2287.17 2857.5,2286.5 Z"/></g>
<g><path style="opacity:0.004" fill="#000000" d="M 1522.5,2291.5 C 1523.83,2292.17 1523.83,2292.17 1522.5,2291.5 Z"/></g>
<g><path style="opacity:0.004" fill="#000000" d="M 2853.5,2291.5 C 2854.83,2292.17 2854.83,2292.17 2853.5,2291.5 Z"/></g>
<g><path style="opacity:0.004" fill="#000000" d="M 2643.5,2293.5 C 2644.83,2294.17 2644.83,2294.17 2643.5,2293.5 Z"/></g>
<g><path style="opacity:0.004" fill="#000000" d="M 1530.5,2296.5 C 1531.83,2297.17 1531.83,2297.17 1530.5,2296.5 Z"/></g>
<g><path style="opacity:0.004" fill="#000000" d="M 2635.5,2298.5 C 2636.83,2299.17 2636.83,2299.17 2635.5,2298.5 Z"/></g>
<g><path style="opacity:0.004" fill="#000000" d="M 1034.5,2299.5 C 1035.83,2300.17 1035.83,2300.17 1034.5,2299.5 Z"/></g>
<g><path style="opacity:0.004" fill="#000000" d="M 1249.5,2300.5 C 1250.83,2301.17 1250.83,2301.17 1249.5,2300.5 Z"/></g>
<g><path style="opacity:0.004" fill="#000000" d="M 1257.5,2305.5 C 1258.83,2306.17 1258.83,2306.17 1257.5,2305.5 Z"/></g>
<g><path style="opacity:0.004" fill="#000000" d="M 2355.5,2306.5 C 2356.83,2307.17 2356.83,2307.17 2355.5,2306.5 Z"/></g>
<g><path style="opacity:0.004" fill="#000000" d="M 2618.5,2308.5 C 2619.83,2309.17 2619.83,2309.17 2618.5,2308.5 Z"/></g>
<g><path style="opacity:0.004" fill="#000000" d="M 1042.5,2311.5 C 1043.83,2312.17 1043.83,2312.17 1042.5,2311.5 Z"/></g>
<g><path style="opacity:0.004" fill="#000000" d="M 2347.5,2311.5 C 2348.83,2312.17 2348.83,2312.17 2347.5,2311.5 Z"/></g>
<g><path style="opacity:0.004" fill="#000000" d="M 2330.5,2321.5 C 2331.83,2322.17 2331.83,2322.17 2330.5,2321.5 Z"/></g>
<g><path style="opacity:0.004" fill="#000000" d="M 2593.5,2323.5 C 2594.83,2324.17 2594.83,2324.17 2593.5,2323.5 Z"/></g>
<g><path style="opacity:0.004" fill="#000000" d="M 2828.5,2326.5 C 2829.83,2327.17 2829.83,2327.17 2828.5,2326.5 Z"/></g>
<g><path style="opacity:0.004" fill="#000000" d="M 1054.5,2328.5 C 1055.83,2329.17 1055.83,2329.17 1054.5,2328.5 Z"/></g>
<g><path style="opacity:0.004" fill="#000000" d="M 2825.5,2331.5 C 2826.83,2332.17 2826.83,2332.17 2825.5,2331.5 Z"/></g>
<g><path style="opacity:0.004" fill="#000000" d="M 1592.5,2333.5 C 1593.83,2334.17 1593.83,2334.17 1592.5,2333.5 Z"/></g>
<g><path style="opacity:0.004" fill="#000000" d="M 2310.5,2333.5 C 2311.83,2334.17 2311.83,2334.17 2310.5,2333.5 Z"/></g>
<g><path style="opacity:0.004" fill="#000000" d="M 2573.5,2335.5 C 2574.83,2336.17 2574.83,2336.17 2573.5,2335.5 Z"/></g>
<g><path style="opacity:0.004" fill="#000000" d="M 2568.5,2338.5 C 2569.83,2339.17 2569.83,2339.17 2568.5,2338.5 Z"/></g>
<g><path style="opacity:0.004" fill="#000000" d="M 2820.5,2338.5 C 2821.83,2339.17 2821.83,2339.17 2820.5,2338.5 Z"/></g>
<g><path style="opacity:0.004" fill="#000000" d="M 1617.5,2348.5 C 1618.83,2349.17 1618.83,2349.17 1617.5,2348.5 Z"/></g>
<g><path style="opacity:0.004" fill="#000000" d="M 2548.5,2350.5 C 2549.83,2351.17 2549.83,2351.17 2548.5,2350.5 Z"/></g>
<g><path style="opacity:0.004" fill="#000000" d="M 1339.5,2353.5 C 1340.83,2354.17 1340.83,2354.17 1339.5,2353.5 Z"/></g>
<g><path style="opacity:0.004" fill="#000000" d="M 1074.5,2356.5 C 1075.83,2357.17 1075.83,2357.17 1074.5,2356.5 Z"/></g>
<g><path style="opacity:0.004" fill="#000000" d="M 1077.5,2361.5 C 1078.83,2362.17 1078.83,2362.17 1077.5,2361.5 Z"/></g>
<g><path style="opacity:0.004" fill="#000000" d="M 2803.5,2361.5 C 2804.83,2362.17 2804.83,2362.17 2803.5,2361.5 Z"/></g>
<g><path style="opacity:0.004" fill="#000000" d="M 2523.5,2365.5 C 2524.83,2366.17 2524.83,2366.17 2523.5,2365.5 Z"/></g>
<g><path style="opacity:0.004" fill="#000000" d="M 2800.5,2366.5 C 2801.83,2367.17 2801.83,2367.17 2800.5,2366.5 Z"/></g>
<g><path style="opacity:0.004" fill="#000000" d="M 1082.5,2368.5 C 1083.83,2369.17 1083.83,2369.17 1082.5,2368.5 Z"/></g>
<g><path style="opacity:0.51" fill="#c6c6c5" d="M 1246.5,2368.5 C 1249.19,2368.34 1251.85,2368.5 1254.5,2369C 1270.68,2375.76 1286.01,2384.09 1300.5,2394C 1303.61,2394.05 1305.94,2395.39 1307.5,2398C 1354.79,2426.62 1400.45,2457.62 1444.5,2491C 1504.85,2534.35 1563.19,2580.35 1619.5,2629C 1617.71,2629.52 1616.04,2629.19 1614.5,2628C 1530.22,2572.19 1446.22,2515.85 1362.5,2459C 1358.28,2456.06 1354.28,2452.9 1350.5,2449.5C 1329.63,2435.8 1308.63,2422.3 1287.5,2409C 1281.91,2403.04 1275.25,2398.88 1267.5,2396.5C 1267.72,2395.32 1267.39,2394.32 1266.5,2393.5C 1259.69,2389.34 1253.53,2384.34 1248,2378.5C 1245.44,2375.46 1244.94,2372.12 1246.5,2368.5 Z"/></g>
<g><path style="opacity:0.004" fill="#000000" d="M 1376.5,2375.5 C 1377.83,2376.17 1377.83,2376.17 1376.5,2375.5 Z"/></g>
<g><path style="opacity:0.004" fill="#000000" d="M 2789.5,2379.5 C 2790.83,2380.17 2790.83,2380.17 2789.5,2379.5 Z"/></g>
<g><path style="opacity:0.004" fill="#000000" d="M 1384.5,2380.5 C 1385.83,2381.17 1385.83,2381.17 1384.5,2380.5 Z"/></g>
<g><path style="opacity:0.004" fill="#000000" d="M 2228.5,2381.5 C 2229.83,2382.17 2229.83,2382.17 2228.5,2381.5 Z"/></g>
<g><path style="opacity:0.004" fill="#000000" d="M 2788.5,2383.5 C 2789.83,2384.17 2789.83,2384.17 2788.5,2383.5 Z"/></g>
<g><path style="opacity:0.004" fill="#000000" d="M 2220.5,2386.5 C 2221.83,2387.17 2221.83,2387.17 2220.5,2386.5 Z"/></g>
<g><path style="opacity:0.004" fill="#000000" d="M 1401.5,2390.5 C 1402.83,2391.17 1402.83,2391.17 1401.5,2390.5 Z"/></g>
<g><path style="opacity:0.004" fill="#000000" d="M 2481.5,2390.5 C 2482.83,2391.17 2482.83,2391.17 2481.5,2390.5 Z"/></g>
<g><path style="opacity:0.004" fill="#000000" d="M 1102.5,2396.5 C 1103.83,2397.17 1103.83,2397.17 1102.5,2396.5 Z"/></g>
<g><path style="opacity:0.004" fill="#000000" d="M 2203.5,2396.5 C 2204.83,2397.17 2204.83,2397.17 2203.5,2396.5 Z"/></g>
<g><path style="opacity:0.004" fill="#000000" d="M 2456.5,2405.5 C 2457.83,2406.17 2457.83,2406.17 2456.5,2405.5 Z"/></g>
<g><path style="opacity:0.004" fill="#000000" d="M 2183.5,2408.5 C 2184.83,2409.17 2184.83,2409.17 2183.5,2408.5 Z"/></g>
<g><path style="opacity:0.004" fill="#000000" d="M 2768.5,2411.5 C 2769.83,2412.17 2769.83,2412.17 2768.5,2411.5 Z"/></g>
<g><path style="opacity:0.004" fill="#000000" d="M 1114.5,2413.5 C 1115.83,2414.17 1115.83,2414.17 1114.5,2413.5 Z"/></g>
<g><path style="opacity:0.004" fill="#000000" d="M 2175.5,2413.5 C 2176.83,2414.17 2176.83,2414.17 2175.5,2413.5 Z"/></g>
<g><path style="opacity:0.004" fill="#000000" d="M 1446.5,2417.5 C 1447.83,2418.17 1447.83,2418.17 1446.5,2417.5 Z"/></g>
<g><path style="opacity:0.004" fill="#000000" d="M 2763.5,2418.5 C 2764.83,2419.17 2764.83,2419.17 2763.5,2418.5 Z"/></g>
<g><path style="opacity:0.004" fill="#000000" d="M 2431.5,2420.5 C 2432.83,2421.17 2432.83,2421.17 2431.5,2420.5 Z"/></g>
<g><path style="opacity:0.004" fill="#000000" d="M 2158.5,2423.5 C 2159.83,2424.17 2159.83,2424.17 2158.5,2423.5 Z"/></g>
<g><path style="opacity:0.004" fill="#000000" d="M 2406.5,2435.5 C 2407.83,2436.17 2407.83,2436.17 2406.5,2435.5 Z"/></g>
<g><path style="opacity:0.004" fill="#000000" d="M 1134.5,2441.5 C 1135.83,2442.17 1135.83,2442.17 1134.5,2441.5 Z"/></g>
<g><path style="opacity:0.004" fill="#000000" d="M 2743.5,2446.5 C 2744.83,2447.17 2744.83,2447.17 2743.5,2446.5 Z"/></g>
<g><path style="opacity:0.004" fill="#000000" d="M 1142.5,2453.5 C 1143.83,2454.17 1143.83,2454.17 1142.5,2453.5 Z"/></g>
<g><path style="opacity:0.004" fill="#000000" d="M 2364.5,2460.5 C 2365.83,2461.17 2365.83,2461.17 2364.5,2460.5 Z"/></g>
<g><path style="opacity:0.004" fill="#000000" d="M 2731.5,2463.5 C 2732.83,2464.17 2732.83,2464.17 2731.5,2463.5 Z"/></g>
<g><path style="opacity:0.004" fill="#000000" d="M 1528.5,2465.5 C 1529.83,2466.17 1529.83,2466.17 1528.5,2465.5 Z"/></g>
<g><path style="opacity:0.004" fill="#000000" d="M 1824.5,2469.5 C 1823.83,2470.17 1823.83,2470.17 1824.5,2469.5 Z"/></g>
<g><path style="opacity:0.004" fill="#000000" d="M 1154.5,2470.5 C 1155.83,2471.17 1155.83,2471.17 1154.5,2470.5 Z"/></g>
<g><path style="opacity:0.004" fill="#000000" d="M 2726.5,2470.5 C 2727.83,2471.17 2727.83,2471.17 2726.5,2470.5 Z"/></g>
<g><path style="opacity:0.004" fill="#000000" d="M 2339.5,2475.5 C 2340.83,2476.17 2340.83,2476.17 2339.5,2475.5 Z"/></g>
<g><path style="opacity:0.004" fill="#000000" d="M 2723.5,2475.5 C 2724.83,2476.17 2724.83,2476.17 2723.5,2475.5 Z"/></g>
<g><path style="opacity:0.004" fill="#000000" d="M 1553.5,2480.5 C 1554.83,2481.17 1554.83,2481.17 1553.5,2480.5 Z"/></g>
<g><path style="opacity:0.004" fill="#000000" d="M 2056.5,2483.5 C 2057.83,2484.17 2057.83,2484.17 2056.5,2483.5 Z"/></g>
<g><path style="opacity:0.004" fill="#000000" d="M 2048.5,2488.5 C 2049.83,2489.17 2049.83,2489.17 2048.5,2488.5 Z"/></g>
<g><path style="opacity:0.004" fill="#000000" d="M 2314.5,2490.5 C 2315.83,2491.17 2315.83,2491.17 2314.5,2490.5 Z"/></g>
<g><path style="opacity:0.004" fill="#000000" d="M 1573.5,2492.5 C 1574.83,2493.17 1574.83,2493.17 1573.5,2492.5 Z"/></g>
<g><path style="opacity:0.004" fill="#000000" d="M 1171.5,2493.5 C 1172.83,2494.17 1172.83,2494.17 1171.5,2493.5 Z"/></g>
<g><path style="opacity:0.004" fill="#000000" d="M 1861.5,2493.5 C 1862.83,2494.17 1862.83,2494.17 1861.5,2493.5 Z"/></g>
<g><path style="opacity:0.004" fill="#000000" d="M 1866.5,2494.5 C 1865.83,2495.17 1865.83,2495.17 1866.5,2494.5 Z"/></g>
<g><path style="opacity:0.004" fill="#000000" d="M 1174.5,2498.5 C 1175.83,2499.17 1175.83,2499.17 1174.5,2498.5 Z"/></g>
<g><path style="opacity:0.004" fill="#000000" d="M 2031.5,2498.5 C 2032.83,2499.17 2032.83,2499.17 2031.5,2498.5 Z"/></g>
<g><path style="opacity:0.004" fill="#000000" d="M 2706.5,2498.5 C 2707.83,2499.17 2707.83,2499.17 2706.5,2498.5 Z"/></g>
<g><path style="opacity:0.004" fill="#000000" d="M 1590.5,2502.5 C 1591.83,2503.17 1591.83,2503.17 1590.5,2502.5 Z"/></g>
<g><path style="opacity:0.004" fill="#000000" d="M 1878.5,2503.5 C 1879.83,2504.17 1879.83,2504.17 1878.5,2503.5 Z"/></g>
<g><path style="opacity:0.004" fill="#000000" d="M 2703.5,2503.5 C 2704.83,2504.17 2704.83,2504.17 2703.5,2503.5 Z"/></g>
<g><path style="opacity:0.498" fill="#6d6d6b" d="M 1528.5,2500.5 C 1532.17,2502 1535.51,2504 1538.5,2506.5C 1534.17,2506.06 1530.84,2504.06 1528.5,2500.5 Z"/></g>
<g><path style="opacity:0.004" fill="#000000" d="M 1179.5,2505.5 C 1180.83,2506.17 1180.83,2506.17 1179.5,2505.5 Z"/></g>
<g><path style="opacity:0.004" fill="#000000" d="M 1598.5,2507.5 C 1599.83,2508.17 1599.83,2508.17 1598.5,2507.5 Z"/></g>
<g><path style="opacity:0.004" fill="#000000" d="M 1886.5,2508.5 C 1887.83,2509.17 1887.83,2509.17 1886.5,2508.5 Z"/></g>
<g><path style="opacity:0.004" fill="#000000" d="M 2011.5,2510.5 C 2012.83,2511.17 2012.83,2511.17 2011.5,2510.5 Z"/></g>
<g><path style="opacity:0.004" fill="#000000" d="M 2698.5,2510.5 C 2699.83,2511.17 2699.83,2511.17 2698.5,2510.5 Z"/></g>
<g><path style="opacity:0.004" fill="#000000" d="M 1186.5,2515.5 C 1187.83,2516.17 1187.83,2516.17 1186.5,2515.5 Z"/></g>
<g><path style="opacity:0.004" fill="#000000" d="M 1903.5,2518.5 C 1904.83,2519.17 1904.83,2519.17 1903.5,2518.5 Z"/></g>
<g><path style="opacity:0.004" fill="#000000" d="M 1994.5,2520.5 C 1995.83,2521.17 1995.83,2521.17 1994.5,2520.5 Z"/></g>
<g><path style="opacity:0.004" fill="#000000" d="M 1911.5,2523.5 C 1912.83,2524.17 1912.83,2524.17 1911.5,2523.5 Z"/></g>
<g><path style="opacity:0.004" fill="#000000" d="M 1635.5,2529.5 C 1636.83,2530.17 1636.83,2530.17 1635.5,2529.5 Z"/></g>
<g><path style="opacity:0.004" fill="#000000" d="M 2678.5,2538.5 C 2679.83,2539.17 2679.83,2539.17 2678.5,2538.5 Z"/></g>
<g><path style="opacity:0.004" fill="#000000" d="M 1211.5,2550.5 C 1212.83,2551.17 1212.83,2551.17 1211.5,2550.5 Z"/></g>
<g><path style="opacity:0.004" fill="#000000" d="M 1214.5,2555.5 C 1215.83,2556.17 1215.83,2556.17 1214.5,2555.5 Z"/></g>
<g><path style="opacity:0.004" fill="#000000" d="M 2666.5,2555.5 C 2667.83,2556.17 2667.83,2556.17 2666.5,2555.5 Z"/></g>
<g><path style="opacity:0.004" fill="#000000" d="M 1231.5,2578.5 C 1232.83,2579.17 1232.83,2579.17 1231.5,2578.5 Z"/></g>
<g><path style="opacity:0.004" fill="#000000" d="M 1725.5,2582.5 C 1726.83,2583.17 1726.83,2583.17 1725.5,2582.5 Z"/></g>
<g><path style="opacity:0.004" fill="#000000" d="M 1239.5,2590.5 C 1240.83,2591.17 1240.83,2591.17 1239.5,2590.5 Z"/></g>
<g><path style="opacity:0.004" fill="#000000" d="M 2641.5,2590.5 C 2642.83,2591.17 2642.83,2591.17 2641.5,2590.5 Z"/></g>
<g><path style="opacity:0.004" fill="#000000" d="M 1742.5,2592.5 C 1743.83,2593.17 1743.83,2593.17 1742.5,2592.5 Z"/></g>
<g><path style="opacity:0.004" fill="#000000" d="M 2138.5,2599.5 C 2137.83,2598.17 2137.83,2598.17 2138.5,2599.5 Z"/></g>
<g><path style="opacity:0.004" fill="#000000" d="M 1246.5,2600.5 C 1247.83,2601.17 1247.83,2601.17 1246.5,2600.5 Z"/></g>
<g><path style="opacity:0.004" fill="#000000" d="M 1251.5,2607.5 C 1252.83,2608.17 1252.83,2608.17 1251.5,2607.5 Z"/></g>
<g><path style="opacity:0.004" fill="#000000" d="M 1770.5,2609.5 C 1771.83,2610.17 1771.83,2610.17 1770.5,2609.5 Z"/></g>
<g><path style="opacity:0.004" fill="#000000" d="M 2113.5,2614.5 C 2112.83,2613.17 2112.83,2613.17 2113.5,2614.5 Z"/></g>
<g><path style="opacity:0.004" fill="#000000" d="M 1787.5,2619.5 C 1788.83,2620.17 1788.83,2620.17 1787.5,2619.5 Z"/></g>
<g><path style="opacity:0.004" fill="#000000" d="M 1271.5,2635.5 C 1272.83,2636.17 1272.83,2636.17 1271.5,2635.5 Z"/></g>
<g><path style="opacity:0.004" fill="#000000" d="M 2609.5,2635.5 C 2610.83,2636.17 2610.83,2636.17 2609.5,2635.5 Z"/></g>
<g><path style="opacity:0.004" fill="#000000" d="M 2604.5,2642.5 C 2605.83,2643.17 2605.83,2643.17 2604.5,2642.5 Z"/></g>
<g><path style="opacity:0.004" fill="#000000" d="M 1832.5,2646.5 C 1833.83,2647.17 1833.83,2647.17 1832.5,2646.5 Z"/></g>
<g><path style="opacity:0.004" fill="#000000" d="M 2601.5,2647.5 C 2602.83,2648.17 2602.83,2648.17 2601.5,2647.5 Z"/></g>
<g><path style="opacity:0.004" fill="#000000" d="M 1283.5,2652.5 C 1284.83,2653.17 1284.83,2653.17 1283.5,2652.5 Z"/></g>
<g><path style="opacity:0.004" fill="#000000" d="M 1286.5,2657.5 C 1287.83,2658.17 1287.83,2658.17 1286.5,2657.5 Z"/></g>
<g><path style="opacity:0.004" fill="#000000" d="M 2584.5,2670.5 C 2585.83,2671.17 2585.83,2671.17 2584.5,2670.5 Z"/></g>
<g><path style="opacity:0.004" fill="#000000" d="M 2013.5,2671.5 C 2014.83,2672.17 2014.83,2672.17 2013.5,2671.5 Z"/></g>
<g><path style="opacity:0.004" fill="#000000" d="M 2581.5,2675.5 C 2582.83,2676.17 2582.83,2676.17 2581.5,2675.5 Z"/></g>
<g><path style="opacity:0.004" fill="#000000" d="M 1303.5,2680.5 C 1304.83,2681.17 1304.83,2681.17 1303.5,2680.5 Z"/></g>
<g><path style="opacity:0.004" fill="#000000" d="M 2576.5,2682.5 C 2577.83,2683.17 2577.83,2683.17 2576.5,2682.5 Z"/></g>
<g><path style="opacity:0.004" fill="#000000" d="M 1988.5,2686.5 C 1989.83,2687.17 1989.83,2687.17 1988.5,2686.5 Z"/></g>
<g><path style="opacity:0.004" fill="#000000" d="M 1308.5,2687.5 C 1309.83,2688.17 1309.83,2688.17 1308.5,2687.5 Z"/></g>
<g><path style="opacity:0.004" fill="#000000" d="M 1311.5,2692.5 C 1312.83,2693.17 1312.83,2693.17 1311.5,2692.5 Z"/></g>
<g><path style="opacity:0.004" fill="#000000" d="M 2569.5,2692.5 C 2570.83,2693.17 2570.83,2693.17 2569.5,2692.5 Z"/></g>
<g><path style="opacity:0.004" fill="#000000" d="M 1914.5,2694.5 C 1915.83,2695.17 1915.83,2695.17 1914.5,2694.5 Z"/></g>
<g><path style="opacity:0.004" fill="#000000" d="M 2564.5,2699.5 C 2565.83,2700.17 2565.83,2700.17 2564.5,2699.5 Z"/></g>
<g><path style="opacity:0.004" fill="#000000" d="M 1963.5,2701.5 C 1964.83,2702.17 1964.83,2702.17 1963.5,2701.5 Z"/></g>
<g><path style="opacity:0.004" fill="#000000" d="M 1323.5,2709.5 C 1324.83,2710.17 1324.83,2710.17 1323.5,2709.5 Z"/></g>
<g><path style="opacity:0.004" fill="#000000" d="M 1939.5,2709.5 C 1940.83,2710.17 1940.83,2710.17 1939.5,2709.5 Z"/></g>
<g><path style="opacity:0.004" fill="#000000" d="M 1946.5,2711.5 C 1947.83,2712.17 1947.83,2712.17 1946.5,2711.5 Z"/></g>
<g><path style="opacity:0.51" fill="#c7c7c6" d="M 1907.5,2971.5 C 1906.73,2972.26 1906.23,2973.26 1906,2974.5C 1906.57,2935.51 1906.57,2896.51 1906,2857.5C 1905.99,2837.97 1905.16,2818.64 1903.5,2799.5C 1904.3,2790.4 1901.3,2782.9 1894.5,2777C 1870.29,2759.12 1845.79,2741.62 1821,2724.5C 1818.96,2718.57 1820.96,2715.24 1827,2714.5C 1829.55,2714.76 1832.05,2715.26 1834.5,2716C 1861.5,2731.76 1887.5,2749.26 1912.5,2768.5C 1917.49,2774.63 1920.66,2781.63 1922,2789.5C 1923.34,2802.81 1923.68,2816.14 1923,2829.5C 1920.37,2856.76 1918.04,2884.1 1916,2911.5C 1913.88,2931.72 1911.05,2951.72 1907.5,2971.5 Z"/></g>
<g><path style="opacity:0.004" fill="#000000" d="M 2544.5,2727.5 C 2545.83,2728.17 2545.83,2728.17 2544.5,2727.5 Z"/></g>
<g><path style="opacity:0.004" fill="#000000" d="M 2539.5,2734.5 C 2540.83,2735.17 2540.83,2735.17 2539.5,2734.5 Z"/></g>
<g><path style="opacity:0.004" fill="#000000" d="M 1343.5,2737.5 C 1344.83,2738.17 1344.83,2738.17 1343.5,2737.5 Z"/></g>
<g><path style="opacity:0.004" fill="#000000" d="M 2536.5,2739.5 C 2537.83,2740.17 2537.83,2740.17 2536.5,2739.5 Z"/></g>
<g><path style="opacity:0.004" fill="#000000" d="M 1348.5,2744.5 C 1349.83,2745.17 1349.83,2745.17 1348.5,2744.5 Z"/></g>
<g><path style="opacity:0.51" fill="#999997" d="M 1937.5,3521.5 C 1937.5,3522.17 1937.5,3522.83 1937.5,3523.5C 1936.39,3523.44 1935.39,3523.11 1934.5,3522.5C 1933.83,3521.17 1933.17,3519.83 1932.5,3518.5C 1934.16,3260.64 1935.16,3002.64 1935.5,2744.5C 1936.17,3003.67 1936.83,3262.67 1937.5,3521.5 Z"/></g>
<g><path style="opacity:0.51" fill="#474643" d="M 1954.5,2744.5 C 1952.5,2999.96 1951.84,3255.63 1952.5,3511.5C 1951.5,3256.33 1951.17,3001 1951.5,2745.5C 1952.21,2744.6 1953.21,2744.26 1954.5,2744.5 Z"/></g>
<g><path style="opacity:0.51" fill="#403f3d" d="M 1951.5,2745.5 C 1951.17,3001 1951.5,3256.33 1952.5,3511.5C 1952.17,3512.5 1951.5,3513.17 1950.5,3513.5C 1950.17,3257.33 1950.5,3001.33 1951.5,2745.5 Z"/></g>
<g><path style="opacity:0.004" fill="#000000" d="M 1351.5,2749.5 C 1352.83,2750.17 1352.83,2750.17 1351.5,2749.5 Z"/></g>
<g><path style="opacity:0.004" fill="#000000" d="M 2519.5,2762.5 C 2520.83,2763.17 2520.83,2763.17 2519.5,2762.5 Z"/></g>
<g><path style="opacity:0.004" fill="#000000" d="M 1368.5,2772.5 C 1369.83,2773.17 1369.83,2773.17 1368.5,2772.5 Z"/></g>
<g><path style="opacity:0.004" fill="#000000" d="M 1371.5,2777.5 C 1372.83,2778.17 1372.83,2778.17 1371.5,2777.5 Z"/></g>
<g><path style="opacity:0.004" fill="#000000" d="M 2507.5,2779.5 C 2508.83,2780.17 2508.83,2780.17 2507.5,2779.5 Z"/></g>
<g><path style="opacity:0.004" fill="#000000" d="M 2504.5,2784.5 C 2505.83,2785.17 2505.83,2785.17 2504.5,2784.5 Z"/></g>
<g><path style="opacity:0.004" fill="#000000" d="M 1380.5,2789.5 C 1381.83,2790.17 1381.83,2790.17 1380.5,2789.5 Z"/></g>
<g><path style="opacity:0.004" fill="#000000" d="M 1383.5,2794.5 C 1384.83,2795.17 1384.83,2795.17 1383.5,2794.5 Z"/></g>
<g><path style="opacity:0.004" fill="#000000" d="M 2482.5,2814.5 C 2483.83,2815.17 2483.83,2815.17 2482.5,2814.5 Z"/></g>
<g><path style="opacity:0.004" fill="#000000" d="M 1400.5,2817.5 C 1401.83,2818.17 1401.83,2818.17 1400.5,2817.5 Z"/></g>
<g><path style="opacity:0.004" fill="#000000" d="M 2479.5,2819.5 C 2480.83,2820.17 2480.83,2820.17 2479.5,2819.5 Z"/></g>
<g><path style="opacity:0.004" fill="#000000" d="M 1408.5,2829.5 C 1409.83,2830.17 1409.83,2830.17 1408.5,2829.5 Z"/></g>
<g><path style="opacity:0.004" fill="#000000" d="M 1415.5,2839.5 C 1416.83,2840.17 1416.83,2840.17 1415.5,2839.5 Z"/></g>
<g><path style="opacity:0.004" fill="#000000" d="M 1420.5,2846.5 C 1421.83,2847.17 1421.83,2847.17 1420.5,2846.5 Z"/></g>
<g><path style="opacity:0.004" fill="#000000" d="M 2454.5,2854.5 C 2455.83,2855.17 2455.83,2855.17 2454.5,2854.5 Z"/></g>
<g><path style="opacity:0.004" fill="#000000" d="M 2447.5,2864.5 C 2448.83,2865.17 2448.83,2865.17 2447.5,2864.5 Z"/></g>
<g><path style="opacity:0.004" fill="#000000" d="M 2442.5,2871.5 C 2443.83,2872.17 2443.83,2872.17 2442.5,2871.5 Z"/></g>
<g><path style="opacity:0.51" fill="#a9a9a7" d="M 1903.5,2799.5 C 1905.16,2818.64 1905.99,2837.97 1906,2857.5C 1906.57,2896.51 1906.57,2935.51 1906,2974.5C 1906.23,2973.26 1906.73,2972.26 1907.5,2971.5C 1907.97,2974.35 1907.14,2976.68 1905,2978.5C 1904.75,2918.83 1904.25,2859.16 1903.5,2799.5 Z"/></g>
<g><path style="opacity:0.004" fill="#000000" d="M 1440.5,2874.5 C 1441.83,2875.17 1441.83,2875.17 1440.5,2874.5 Z"/></g>
<g><path style="opacity:0.004" fill="#000000" d="M 1443.5,2879.5 C 1444.83,2880.17 1444.83,2880.17 1443.5,2879.5 Z"/></g>
<g><path style="opacity:0.004" fill="#000000" d="M 1448.5,2886.5 C 1449.83,2887.17 1449.83,2887.17 1448.5,2886.5 Z"/></g>
<g><path style="opacity:0.004" fill="#000000" d="M 2422.5,2899.5 C 2423.83,2900.17 2423.83,2900.17 2422.5,2899.5 Z"/></g>
<g><path style="opacity:0.004" fill="#000000" d="M 2417.5,2906.5 C 2418.83,2907.17 2418.83,2907.17 2417.5,2906.5 Z"/></g>
<g><path style="opacity:0.004" fill="#000000" d="M 2414.5,2911.5 C 2415.83,2912.17 2415.83,2912.17 2414.5,2911.5 Z"/></g>
<g><path style="opacity:0.004" fill="#000000" d="M 1468.5,2914.5 C 1469.83,2915.17 1469.83,2915.17 1468.5,2914.5 Z"/></g>
<g><path style="opacity:0.004" fill="#000000" d="M 1480.5,2931.5 C 1481.83,2932.17 1481.83,2932.17 1480.5,2931.5 Z"/></g>
<g><path style="opacity:0.004" fill="#000000" d="M 2385.5,2951.5 C 2386.83,2952.17 2386.83,2952.17 2385.5,2951.5 Z"/></g>
<g><path style="opacity:0.004" fill="#000000" d="M 2382.5,2956.5 C 2383.83,2957.17 2383.83,2957.17 2382.5,2956.5 Z"/></g>
<g><path style="opacity:0.004" fill="#000000" d="M 1500.5,2959.5 C 1501.83,2960.17 1501.83,2960.17 1500.5,2959.5 Z"/></g>
<g><path style="opacity:0.004" fill="#000000" d="M 2377.5,2963.5 C 2378.83,2964.17 2378.83,2964.17 2377.5,2963.5 Z"/></g>
<g><path style="opacity:0.004" fill="#000000" d="M 1508.5,2971.5 C 1509.83,2972.17 1509.83,2972.17 1508.5,2971.5 Z"/></g>
<g><path style="opacity:0.004" fill="#000000" d="M 1512.5,2976.5 C 1513.83,2977.17 1513.83,2977.17 1512.5,2976.5 Z"/></g>
<g><path style="opacity:0.004" fill="#000000" d="M 2360.5,2986.5 C 2361.83,2987.17 2361.83,2987.17 2360.5,2986.5 Z"/></g>
<g><path style="opacity:0.004" fill="#000000" d="M 1520.5,2988.5 C 1521.83,2989.17 1521.83,2989.17 1520.5,2988.5 Z"/></g>
<g><path style="opacity:0.004" fill="#000000" d="M 2357.5,2991.5 C 2358.83,2992.17 2358.83,2992.17 2357.5,2991.5 Z"/></g>
<g><path style="opacity:0.004" fill="#000000" d="M 2345.5,3008.5 C 2346.83,3009.17 2346.83,3009.17 2345.5,3008.5 Z"/></g>
<g><path style="opacity:0.004" fill="#000000" d="M 1537.5,3011.5 C 1538.83,3012.17 1538.83,3012.17 1537.5,3011.5 Z"/></g>
<g><path style="opacity:0.004" fill="#000000" d="M 1540.5,3016.5 C 1541.83,3017.17 1541.83,3017.17 1540.5,3016.5 Z"/></g>
<g><path style="opacity:0.004" fill="#000000" d="M 1545.5,3023.5 C 1546.83,3024.17 1546.83,3024.17 1545.5,3023.5 Z"/></g>
<g><path style="opacity:0.004" fill="#000000" d="M 1552.5,3033.5 C 1553.83,3034.17 1553.83,3034.17 1552.5,3033.5 Z"/></g>
<g><path style="opacity:0.004" fill="#000000" d="M 2325.5,3036.5 C 2326.83,3037.17 2326.83,3037.17 2325.5,3036.5 Z"/></g>
<g><path style="opacity:0.004" fill="#000000" d="M 2320.5,3043.5 C 2321.83,3044.17 2321.83,3044.17 2320.5,3043.5 Z"/></g>
<g><path style="opacity:0.004" fill="#000000" d="M 2317.5,3048.5 C 2318.83,3049.17 2318.83,3049.17 2317.5,3048.5 Z"/></g>
<g><path style="opacity:0.004" fill="#000000" d="M 1577.5,3068.5 C 1578.83,3069.17 1578.83,3069.17 1577.5,3068.5 Z"/></g>
<g><path style="opacity:0.004" fill="#000000" d="M 2300.5,3071.5 C 2301.83,3072.17 2301.83,3072.17 2300.5,3071.5 Z"/></g>
<g><path style="opacity:0.004" fill="#000000" d="M 1580.5,3073.5 C 1581.83,3074.17 1581.83,3074.17 1580.5,3073.5 Z"/></g>
<g><path style="opacity:0.004" fill="#000000" d="M 2292.5,3083.5 C 2293.83,3084.17 2293.83,3084.17 2292.5,3083.5 Z"/></g>
<g><path style="opacity:0.004" fill="#000000" d="M 1597.5,3096.5 C 1598.83,3097.17 1598.83,3097.17 1597.5,3096.5 Z"/></g>
<g><path style="opacity:0.004" fill="#000000" d="M 2280.5,3100.5 C 2281.83,3101.17 2281.83,3101.17 2280.5,3100.5 Z"/></g>
<g><path style="opacity:0.51" fill="#302f2e" d="M 1954.5,2742.5 C 1954.5,2743.17 1954.5,2743.83 1954.5,2744.5C 1953.21,2744.26 1952.21,2744.6 1951.5,2745.5C 1950.5,3001.33 1950.17,3257.33 1950.5,3513.5C 1949.33,3257.33 1949.17,3001 1950,2744.5C 1951.33,2743.42 1952.83,2742.75 1954.5,2742.5 Z"/></g>
<g><path style="opacity:0.004" fill="#000000" d="M 1609.5,3113.5 C 1610.83,3114.17 1610.83,3114.17 1609.5,3113.5 Z"/></g>
<g><path style="opacity:0.004" fill="#000000" d="M 1612.5,3118.5 C 1613.83,3119.17 1613.83,3119.17 1612.5,3118.5 Z"/></g>
<g><path style="opacity:0.004" fill="#000000" d="M 2263.5,3123.5 C 2264.83,3124.17 2264.83,3124.17 2263.5,3123.5 Z"/></g>
<g><path style="opacity:0.004" fill="#000000" d="M 1617.5,3125.5 C 1618.83,3126.17 1618.83,3126.17 1617.5,3125.5 Z"/></g>
<g><path style="opacity:0.004" fill="#000000" d="M 2260.5,3128.5 C 2261.83,3129.17 2261.83,3129.17 2260.5,3128.5 Z"/></g>
<g><path style="opacity:0.004" fill="#000000" d="M 2255.5,3135.5 C 2256.83,3136.17 2256.83,3136.17 2255.5,3135.5 Z"/></g>
<g><path style="opacity:0.004" fill="#000000" d="M 1637.5,3153.5 C 1638.83,3154.17 1638.83,3154.17 1637.5,3153.5 Z"/></g>
<g><path style="opacity:0.004" fill="#000000" d="M 2235.5,3163.5 C 2236.83,3164.17 2236.83,3164.17 2235.5,3163.5 Z"/></g>
<g><path style="opacity:0.004" fill="#000000" d="M 1649.5,3170.5 C 1650.83,3171.17 1650.83,3171.17 1649.5,3170.5 Z"/></g>
<g><path style="opacity:0.004" fill="#000000" d="M 1652.5,3175.5 C 1653.83,3176.17 1653.83,3176.17 1652.5,3175.5 Z"/></g>
<g><path style="opacity:0.004" fill="#000000" d="M 2223.5,3180.5 C 2224.83,3181.17 2224.83,3181.17 2223.5,3180.5 Z"/></g>
<g><path style="opacity:0.004" fill="#000000" d="M 1669.5,3198.5 C 1670.83,3199.17 1670.83,3199.17 1669.5,3198.5 Z"/></g>
<g><path style="opacity:0.004" fill="#000000" d="M 1677.5,3210.5 C 1678.83,3211.17 1678.83,3211.17 1677.5,3210.5 Z"/></g>
<g><path style="opacity:0.004" fill="#000000" d="M 2198.5,3215.5 C 2199.83,3216.17 2199.83,3216.17 2198.5,3215.5 Z"/></g>
<g><path style="opacity:0.004" fill="#000000" d="M 2195.5,3220.5 C 2196.83,3221.17 2196.83,3221.17 2195.5,3220.5 Z"/></g>
<g><path style="opacity:0.004" fill="#000000" d="M 1689.5,3227.5 C 1690.83,3228.17 1690.83,3228.17 1689.5,3227.5 Z"/></g>
<g><path style="opacity:0.004" fill="#000000" d="M 1709.5,3255.5 C 1710.83,3256.17 1710.83,3256.17 1709.5,3255.5 Z"/></g>
<g><path style="opacity:0.004" fill="#000000" d="M 2170.5,3255.5 C 2171.83,3256.17 2171.83,3256.17 2170.5,3255.5 Z"/></g>
<g><path style="opacity:0.004" fill="#000000" d="M 1714.5,3262.5 C 1715.83,3263.17 1715.83,3263.17 1714.5,3262.5 Z"/></g>
<g><path style="opacity:0.004" fill="#000000" d="M 1717.5,3267.5 C 1718.83,3268.17 1718.83,3268.17 1717.5,3267.5 Z"/></g>
<g><path style="opacity:0.004" fill="#000000" d="M 2158.5,3272.5 C 2159.83,3273.17 2159.83,3273.17 2158.5,3272.5 Z"/></g>
<g><path style="opacity:0.004" fill="#000000" d="M 1734.5,3290.5 C 1735.83,3291.17 1735.83,3291.17 1734.5,3290.5 Z"/></g>
<g><path style="opacity:0.004" fill="#000000" d="M 1737.5,3295.5 C 1738.83,3296.17 1738.83,3296.17 1737.5,3295.5 Z"/></g>
<g><path style="opacity:0.004" fill="#000000" d="M 2141.5,3295.5 C 2142.83,3296.17 2142.83,3296.17 2141.5,3295.5 Z"/></g>
<g><path style="opacity:0.004" fill="#000000" d="M 2138.5,3300.5 C 2139.83,3301.17 2139.83,3301.17 2138.5,3300.5 Z"/></g>
<g><path style="opacity:0.004" fill="#000000" d="M 1746.5,3307.5 C 1747.83,3308.17 1747.83,3308.17 1746.5,3307.5 Z"/></g>
<g><path style="opacity:0.004" fill="#000000" d="M 2133.5,3307.5 C 2134.83,3308.17 2134.83,3308.17 2133.5,3307.5 Z"/></g>
<g><path style="opacity:0.004" fill="#000000" d="M 1749.5,3312.5 C 1750.83,3313.17 1750.83,3313.17 1749.5,3312.5 Z"/></g>
<g><path style="opacity:0.004" fill="#000000" d="M 1766.5,3335.5 C 1767.83,3336.17 1767.83,3336.17 1766.5,3335.5 Z"/></g>
<g><path style="opacity:0.004" fill="#000000" d="M 2113.5,3335.5 C 2114.83,3336.17 2114.83,3336.17 2113.5,3335.5 Z"/></g>
<g><path style="opacity:0.004" fill="#000000" d="M 1774.5,3347.5 C 1775.83,3348.17 1775.83,3348.17 1774.5,3347.5 Z"/></g>
<g><path style="opacity:0.004" fill="#000000" d="M 2101.5,3352.5 C 2102.83,3353.17 2102.83,3353.17 2101.5,3352.5 Z"/></g>
<g><path style="opacity:0.004" fill="#000000" d="M 1781.5,3357.5 C 1782.83,3358.17 1782.83,3358.17 1781.5,3357.5 Z"/></g>
<g><path style="opacity:0.004" fill="#000000" d="M 2096.5,3359.5 C 2097.83,3360.17 2097.83,3360.17 2096.5,3359.5 Z"/></g>
<g><path style="opacity:0.004" fill="#000000" d="M 1786.5,3364.5 C 1787.83,3365.17 1787.83,3365.17 1786.5,3364.5 Z"/></g>
<g><path style="opacity:0.004" fill="#000000" d="M 2093.5,3364.5 C 2094.83,3365.17 2094.83,3365.17 2093.5,3364.5 Z"/></g>
<g><path style="opacity:0.004" fill="#000000" d="M 2076.5,3387.5 C 2077.83,3388.17 2077.83,3388.17 2076.5,3387.5 Z"/></g>
<g><path style="opacity:0.004" fill="#000000" d="M 1806.5,3392.5 C 1807.83,3393.17 1807.83,3393.17 1806.5,3392.5 Z"/></g>
<g><path style="opacity:0.004" fill="#000000" d="M 2073.5,3392.5 C 2074.83,3393.17 2074.83,3393.17 2073.5,3392.5 Z"/></g>
<g><path style="opacity:0.004" fill="#000000" d="M 1809.5,3397.5 C 1810.83,3398.17 1810.83,3398.17 1809.5,3397.5 Z"/></g>
<g><path style="opacity:0.004" fill="#000000" d="M 1814.5,3404.5 C 1815.83,3405.17 1815.83,3405.17 1814.5,3404.5 Z"/></g>
<g><path style="opacity:0.004" fill="#000000" d="M 2061.5,3409.5 C 2062.83,3410.17 2062.83,3410.17 2061.5,3409.5 Z"/></g>
<g><path style="opacity:0.004" fill="#000000" d="M 2048.5,3427.5 C 2049.83,3428.17 2049.83,3428.17 2048.5,3427.5 Z"/></g>
<g><path style="opacity:0.004" fill="#000000" d="M 1834.5,3432.5 C 1835.83,3433.17 1835.83,3433.17 1834.5,3432.5 Z"/></g>
<g><path style="opacity:0.004" fill="#000000" d="M 2036.5,3444.5 C 2037.83,3445.17 2037.83,3445.17 2036.5,3444.5 Z"/></g>
<g><path style="opacity:0.004" fill="#000000" d="M 1846.5,3449.5 C 1847.83,3450.17 1847.83,3450.17 1846.5,3449.5 Z"/></g>
<g><path style="opacity:0.004" fill="#000000" d="M 1866.5,3477.5 C 1867.83,3478.17 1867.83,3478.17 1866.5,3477.5 Z"/></g>
<g><path style="opacity:0.004" fill="#000000" d="M 2011.5,3479.5 C 2012.83,3480.17 2012.83,3480.17 2011.5,3479.5 Z"/></g>
<g><path style="opacity:0.004" fill="#000000" d="M 1874.5,3489.5 C 1875.83,3490.17 1875.83,3490.17 1874.5,3489.5 Z"/></g>
<g><path style="opacity:0.004" fill="#000000" d="M 1878.5,3494.5 C 1879.83,3495.17 1879.83,3495.17 1878.5,3494.5 Z"/></g>
<g><path style="opacity:0.004" fill="#000000" d="M 1999.5,3496.5 C 2000.83,3497.17 2000.83,3497.17 1999.5,3496.5 Z"/></g>
<g><path style="opacity:0.004" fill="#000000" d="M 1886.5,3506.5 C 1887.83,3507.17 1887.83,3507.17 1886.5,3506.5 Z"/></g>
<g><path style="opacity:0.51" fill="#4e4e4d" d="M 1934.5,3522.5 C 1935.39,3523.11 1936.39,3523.44 1937.5,3523.5C 1936.05,3524.89 1935.05,3524.55 1934.5,3522.5 Z"/></g>
<g><path style="opacity:0.004" fill="#000000" d="M 1979.5,3524.5 C 1980.83,3525.17 1980.83,3525.17 1979.5,3524.5 Z"/></g>
<g><path style="opacity:0.004" fill="#000000" d="M 1903.5,3529.5 C 1904.83,3530.17 1904.83,3530.17 1903.5,3529.5 Z"/></g>
<g><path style="opacity:0.004" fill="#000000" d="M 1974.5,3531.5 C 1975.83,3532.17 1975.83,3532.17 1974.5,3531.5 Z"/></g>
<g><path style="opacity:0.004" fill="#000000" d="M 1906.5,3534.5 C 1907.83,3535.17 1907.83,3535.17 1906.5,3534.5 Z"/></g>
<g><path style="opacity:0.004" fill="#000000" d="M 1971.5,3536.5 C 1972.83,3537.17 1972.83,3537.17 1971.5,3536.5 Z"/></g>
<g><path style="opacity:0.004" fill="#000000" d="M 1918.5,3551.5 C 1919.83,3552.17 1919.83,3552.17 1918.5,3551.5 Z"/></g>
</svg>
